<svg width="2128" height="2837" viewBox="0 0 2128 2837" fill="none" xmlns="http://www.w3.org/2000/svg">
<mask id="mask0_58_2" style="mask-type:luminance" maskUnits="userSpaceOnUse" x="627" y="240" width="1500" height="2000">
<path d="M2127 240H627V2240H2127V240Z" fill="white"/>
</mask>
<g mask="url(#mask0_58_2)">
<path d="M2082.32 -455.197L2062.74 -375.477L2048.13 -302.141L2018.76 -272.919L2016.35 -223.981L2040.75 -199.583L2030.96 -162.986L1982.02 -165.397L1923.43 -197.172V-228.946L1950.24 -250.933L1952.65 -282.707L1891.65 -299.871L1864.84 -275.331L1823.27 -277.742L1830.65 -260.578L1859.87 -248.379L1879.45 -197.03L1930.8 -128.658L1989.54 -65.1091L1977.34 -40.711L1911.37 -67.5206L1872.21 -72.4854L1855.05 -30.9233L1862.28 -4.11363L1828.09 32.4837L1842.71 66.6695L1906.26 125.254L1901.3 147.24L1876.9 125.254L1830.51 147.24L1801.14 144.829L1769.36 164.262L1749.92 122.842L1727.94 144.829L1754.75 198.59L1793.9 196.179L1811.07 201.143L1798.87 237.741L1720.7 242.705L1701.12 223.13L1679.13 228.095L1659.7 203.697L1642.53 162.135L1622.95 157.17L1640.12 108.373L1625.51 86.3867L1537.55 57.1655L1478.82 8.22729L1508.18 -1.56035L1530.17 22.8379L1588.91 25.2493L1615.72 37.4484L1720.7 30.214L1752.48 37.4484L1811.07 -28.5119L1813.48 -74.8968L1791.49 -136.034L1732.76 -172.631L1652.18 -180.008L1581.25 -221.428L1500.67 -211.64L1466.48 -192.207L1429.87 -199.441L1417.67 -226.251L1444.49 -236.038L1402.92 -241.003L1384.62 -229.23L1368.73 -219.016L1310 -226.251L1302.76 -243.415L1341.92 -248.238L1366.32 -275.047L1354.12 -287.246L1322.34 -297.034L1307.73 -304.268L1280.91 -297.034L1283.33 -270.224H1253.96L1263.75 -294.622L1266.16 -314.056L1239.35 -311.644V-287.104L1227.15 -265.118L1222.32 -238.308L1214.95 -287.104L1202.75 -270.082L1195.51 -243.273L1184.44 -211.498L1168.7 -223.697L1171.11 -253.06L1184.59 -270.224V-284.835H1149.12L1151.53 -260.295L1139.33 -238.308L1119.75 -233.343L1122.16 -211.357L1053.79 -213.768L1056.2 -199.157L1070.81 -186.958L1063.57 -169.794L1044 -172.206L1029.38 -133.055L1024.56 -169.653L1004.98 -167.241L1009.95 -135.467L992.783 -159.865L978.17 -142.701L990.371 -118.303L968.382 -123.268L939.015 -89.0818L904.825 -42.6969L931.638 -25.533L902.272 -23.1215L899.86 -6.09953L897.448 8.51101L882.836 3.68812L860.847 40.2854L870.635 59.7189L843.823 54.896L821.833 69.5065L785.232 142.701L746.077 203.838L765.512 216.038L750.9 235.471L748.488 259.869L731.464 267.245L697.274 323.418L628.895 396.754L648.472 413.918L687.627 401.719L685.216 421.153L648.614 438.317L614.424 418.741L599.812 423.706L604.635 455.48L581.511 430.94L548.456 448.104H509.301L521.502 467.679L502.066 477.467V492.078L514.266 501.865L477.665 496.901L475.253 533.64L453.264 531.228L441.063 538.463L409.285 523.852L397.084 545.839L441.063 558.038L431.274 572.648L399.638 567.684L394.673 579.883L380.06 599.458L409.427 621.445L441.205 628.679L458.229 601.87L463.194 626.41H492.561L507.173 587.259L514.408 633.644L472.841 648.255L468.018 670.241L443.475 643.432L379.919 645.843L377.507 677.617L416.662 663.007L375.237 709.392L389.849 728.967L438.793 684.994L446.028 699.604L404.462 743.578L419.074 755.777L379.919 775.21L384.884 794.786L409.285 782.586L411.697 797.197L377.507 855.781L411.697 894.932L428.721 897.343V911.954L443.333 916.919L460.499 911.954L455.534 926.564L467.876 931.529L489.865 909.542L521.643 899.755L531.432 880.179L546.044 882.591L548.456 865.569L581.511 838.759L612.012 833.794L614.424 804.431L602.224 782.445L621.801 789.679L629.036 767.692L638.825 819.042L660.815 833.652L651.593 883.584L648.756 899.613L663.368 904.577L677.98 919.188L680.392 955.785L685.216 970.396L690.181 1019.19L729.336 1087.56L719.547 1102.17L714.582 1133.81L721.392 1152.53L734.018 1187.43L773.173 1192.39L792.609 1202.18L807.221 1185.02L804.809 1155.79L826.799 1121.61L858.577 1124.02H882.978L900.144 1067.85L929.51 1011.67L924.545 970.112L909.933 952.948L922.133 940.749L924.545 921.174L912.344 899.187L917.31 884.577L951.499 872.378L963.7 847.979L983.278 860.179L993.066 845.568L1005.27 828.404L958.735 825.993L939.299 845.426L929.368 821.312L909.081 811.808L915.04 798.757L946.109 791.523L963.984 801.027L998.457 809.396L1021.16 786.7L1017.61 758.047L1008.1 754.5L1009.38 728.258L965.261 710.385L947.385 735.351L928.375 754.358L910.5 748.542L914.047 732.939L941.427 719.889L952.209 698.328L945.115 660.17L937.88 605.416L954.621 603.004L952.209 570.804L942.704 521.866L955.897 523.143L964.267 514.774L966.679 494.489L982.143 495.766L991.648 482.574L1003.56 450.374L1022.57 444.416L1035.63 424.132L1047.54 425.408L1085.71 382.428L1108.4 338.312L1121.6 334.766L1118.05 314.481L1093.08 310.935L1099.04 295.332L1113.37 277.459L1110.96 263.132L1103.86 251.216L1107.41 234.478L1124.15 227.386L1144.44 191.498L1177.78 193.909L1196.79 185.54L1203.88 190.363L1226.58 184.405L1273.11 227.386L1276.66 278.593L1257.65 277.459L1215.94 359.732L1161.18 439.593L1131.24 446.686L1132.52 462.289L1127.7 471.793L1115.78 484.985L1118.19 513.497L1130.11 529.101L1127.7 552.931L1143.3 570.804L1146.85 591.089L1142.03 617.331L1149.26 684.143L1206.43 716.343H1225.59L1230.27 739.039L1241.05 748.542L1257.79 742.585L1288.86 734.216L1315.1 703.15L1328.16 713.931L1351.99 685.277L1368.73 688.824L1375.82 676.908L1399.66 667.404L1412.85 657.9L1442.64 656.624L1470.02 647.12L1484.35 630.381L1503.36 633.928L1494.99 649.531L1496.27 661.447L1554.72 659.035L1569.04 681.731L1560.67 688.965L1532.02 691.377L1515.28 718.754L1502.23 729.535V745.138L1485.49 752.231L1468.75 764.146L1430.58 761.735C1430.58 761.735 1428.17 749.819 1424.77 749.819C1421.36 749.819 1387.74 753.365 1387.74 753.365L1381.78 758.047L1372.28 744.996L1366.32 753.365L1363.91 766.416H1331.7L1323.33 778.331L1312.55 775.92L1301.77 785.423L1295.81 802.162L1275.66 809.396V839.185L1299.5 849.965L1285.17 860.746L1297.09 877.484L1313.83 892.946L1334.11 883.442L1341.21 923.869L1335.25 1002.6L1317.37 1016.92L1285.17 1010.96L1267.29 990.681L1243.46 959.615L1228 954.934L1198.06 981.176L1179.05 1027.7L1171.96 1090.83L1179.05 1112.39L1185.3 1154.09L1213.67 1188.7L1208.99 1190.83L1203.17 1193.53L1200.76 1217.36L1180.47 1229.13L1168.56 1212.68L1156.64 1215.09L1153.09 1229.27H1130.39L1125.57 1250.83L1107.69 1274.66L1077.76 1284.17L1045.56 1276.93L1043.15 1260.2L1053.93 1258.92L1056.34 1243.46L1040.88 1237.5L991.931 1247L942.987 1263.74L907.237 1304.17L842.83 1316.08L808.214 1350.7L778.422 1344.74L772.464 1322.04L747.495 1304.17L745.083 1292.25L767.782 1290.98L772.464 1276.65L760.547 1262.32L740.26 1274.24L730.755 1292.11L697.416 1295.66L708.198 1286.15L715.433 1281.33L705.928 1274.24L703.942 1275.94L679.683 1295.66L658.261 1299.2L640.386 1319.49L628.469 1320.62L608.182 1331.4L596.265 1318.21L602.224 1301.47L615.275 1300.34L624.78 1284.74L602.082 1278.78L573.425 1281.19L557.961 1266.86L568.743 1254.95L560.373 1238.21L548.456 1228.42L547.321 1214.24L527.034 1211.82L543.775 1189.13L550.868 1179.77L554.556 1174.8L551.01 1153.38L565.338 1147.42L568.885 1134.37L587.895 1131.96L596.265 1109.27L615.275 1105.72C615.275 1105.72 623.645 1109.27 624.78 1105.72C625.915 1102.17 629.462 1081.89 629.462 1081.89L600.947 1072.39L581.937 1074.8L592.577 1040.19L608.04 1018.77L606.763 986.567L602.082 971.105L574.702 983.021L548.456 1017.49L492.419 1018.77L484.049 1054.51L468.585 1102.17L474.544 1147.42L497.242 1173.67L500.789 1208.14L494.831 1220.05L496.107 1235.66L506.889 1260.62L487.879 1266.44L492.561 1278.35L504.478 1291.54L499.796 1307.01L504.478 1318.92L474.686 1322.47L469.862 1349.99L449.717 1360.77L447.305 1332.11L400.773 1335.66L396.091 1345.16L405.596 1360.77L402.05 1366.72L387.721 1365.45L376.939 1347.58L344.736 1352.26L299.48 1358.21L292.387 1373.68L298.345 1393.96L300.757 1416.66L281.747 1425.03L282.882 1441.76L291.252 1447.72L266.283 1450.13L261.602 1414.39L269.972 1402.47L268.695 1383.46L250.82 1396.51L240.038 1450.13L203.153 1481.2L213.935 1493.54H255.643L256.92 1508.57L181.731 1506.16L183.008 1518.08L193.79 1526.45L155.627 1524.04L124.559 1525.17L113.635 1529.99L102.995 1534.68L49.3692 1540.63L23.1239 1590.71L25.5356 1609.71L-13.7614 1628.72L-70.9337 1646.59L-65.1172 1659.65L-47.2419 1666.88L-54.3353 1676.38H-116.331L-167.687 1643.05L-159.317 1632.27L-160.593 1617.94L-198.756 1615.53L-200.032 1668.01L-189.25 1720.5L-208.402 1722.91L-215.496 1712.13C-215.496 1712.13 -220.177 1710.99 -223.866 1710.99H-260.893L-283.592 1672.84L-322.889 1675.25L-327.57 1684.75L-351.404 1678.79L-397.936 1681.21L-408.718 1691.99L-395.666 1705.04L-386.161 1709.72L-388.573 1718.09L-376.656 1728.87L-395.666 1733.69L-389.708 1759.79L-362.328 1757.38L-315.796 1794.4L-293.097 1797.95L-294.374 1811L-276.498 1814.55L-277.775 1833.55L-239.613 1840.65L-242.025 1847.88L-262.17 1853.84L-261.035 1872.85H-280.045L-263.305 1888.31L-252.523 1920.51L-216.773 1944.34L-219.184 1967.03L-228.689 1992L-205.991 2019.52L-207.268 2050.58L-220.319 2044.63L-229.824 2025.48L-238.194 2042.21L-252.523 2087.46L-236.918 2105.34L-242.876 2111.3H-258.481L-262.028 2139.95L-276.357 2173.28L-316.789 2213.57L-363.321 2208.6L-435.389 2176.83H-475.679L-573.425 2134.13L-602.792 2115.83L-616.269 2126.76L-671.172 2101.08H-688.337L-715.15 2075.41H-748.205L-765.229 2092.57V2104.77L-799.419 2098.67V2088.88L-814.031 2091.29L-820.131 2096.26L-842.121 2104.77V2113.28L-832.332 2131.58L-829.92 2159.67L-823.82 2191.44L-834.744 2213.43L-842.121 2229.31V2305.06L-844.533 2309.74L-884.823 2385.78L-922.701 2446.77L-954.479 2460.25L-959.445 2490.74L-969.233 2506.63L-955.756 2522.38L-948.521 2544.36H-918.019L-931.497 2580.96L-946.109 2607.77L-949.656 2643.23L-969.233 2666.5V2681.11H-937.455L-918.019 2703.09H-831.197L-798.284 2717.7L-783.672 2751.89L-776.437 2799.55L-759.271 2827.64L-723.804 2838.7L-690.749 2809.34L-655.282 2810.62L-632.016 2799.55H-581.937L-568.46 2814.16L-529.305 2812.89L-515.828 2832.46H-485.326L-474.402 2821.54L-458.655 2822.82L-417.088 2773.88L-386.587 2765.37H-352.397L-342.608 2742.24L-301.041 2696.99L-269.405 2678.7V2659.12L-288.841 2626.21L-292.529 2600.54L-215.638 2529.61L-180.171 2485.64L-167.829 2462.52L-76.1828 2456.98L-63.9822 2439.39L-21.1385 2422.23L1.98581 2411.31V2378.26L15.4631 2372.16L12.2001 2359.96L9.36281 2348.89L15.4631 2323.22L-0.425942 2311.02L15.4631 2285.35L54.6183 2281.8L72.9191 2254.99L107.109 2264.78L124.275 2280.66L159.741 2281.94L176.907 2295.42L200.032 2298.96L208.544 2313.57L255.076 2311.16L314.944 2247.61L333.244 2243.93L339.345 2253.71L371.123 2251.3L390.559 2218.25L430.849 2201.23L473.692 2231.73L522.495 2254.99V2323.36L582.362 2388.19V2410.17H605.487L617.687 2436.98L638.542 2439.39L678.832 2493.16L708.056 2516.28L764.235 2522.38L792.325 2557.84L804.526 2559.12L809.491 2572.59L841.269 2575L848.646 2588.48V2618.98L871.77 2622.66L879.147 2627.49L888.936 2623.94L902.414 2621.53L909.649 2669.19L942.704 2721.68V2747.35L919.579 2759.69L915.891 2771.89L920.714 2786.5L903.69 2801.11L907.237 2820.69L929.226 2825.65L956.039 2801.11L976.752 2775.44L985.406 2739.97L1004.84 2730.19L1010.94 2687.35L974.198 2659.26L966.963 2627.49L995.053 2587.2L1010.94 2582.24L1032.93 2596.85L1063.43 2605.36L1080.46 2626.21L1093.93 2646.92L1107.41 2628.62V2610.32L1076.91 2573.73L1036.62 2554.15L1003.56 2539.54L953.486 2510.18L925.396 2500.39L900.995 2499.11L914.472 2485.64L933.908 2466.2L931.496 2456.98H892.341L865.528 2463.79L845.951 2456.98L823.961 2428.33L800.695 2415.99L772.606 2367.19L760.405 2317.12L710.184 2270.59L665.071 2246.19L652.87 2212.01L661.382 2180.23L674.859 2166.76L669.894 2154.56L658.97 2144.77L668.759 2119.1L709.049 2114.13L721.25 2096.97H759.128L753.17 2120.8L750.474 2131.15L766.363 2160.52L770.052 2178.82L793.176 2169.03L800.411 2143.35L817.577 2139.67L845.667 2161.65L853.044 2178.67L854.179 2220.24L883.545 2233.71L875.033 2250.88L883.545 2268.04L919.012 2280.24L927.524 2303.36L980.015 2313.15L1003.14 2325.35L1016.19 2339.11L1026.4 2349.89L1047.26 2359.67L1058.18 2374.29L1080.17 2379.11L1094.78 2393.72L1106.99 2418.12L1138.76 2425.49L1158.91 2447.76L1166.85 2456.56H1187.57L1166.85 2519.54L1170.54 2556.14L1166.85 2592.73L1179.05 2604.93L1218.21 2620.82L1225.44 2647.63L1240.06 2657.42L1246.16 2664.23L1270.56 2691.6L1276.66 2708.63V2723.24L1290.14 2721.96V2708.48H1313.26V2720.68L1297.37 2729.34L1296.09 2741.53L1313.26 2757.42L1324.18 2776.86L1402.35 2768.34L1418.24 2772.03L1450.02 2769.62L1459.81 2778.13L1478.11 2781.82V2794.02L1492.72 2797.71L1503.64 2794.02L1523.22 2809.91L1534.15 2823.38L1543.93 2817.28V2786.79L1519.53 2763.66L1471.87 2733.17L1422.92 2723.38L1430.3 2707.49L1448.6 2708.77L1447.32 2696.57L1439.95 2685.65L1444.91 2674.72H1457.11L1466.9 2691.89L1473 2685.79L1468.04 2669.9L1443.63 2649.19L1429.02 2621.1L1411.86 2618.69L1409.44 2563.66L1433.99 2562.38L1451.01 2576.99L1469.31 2589.19L1481.51 2611.17L1488.75 2609.9L1483.92 2595.29L1488.75 2586.78H1498.54L1507.05 2601.39V2613.73L1517.97 2607.63L1516.7 2589.33L1498.4 2571.03L1520.38 2573.44L1528.9 2564.79L1497.12 2555L1486.19 2542.8L1501.94 2541.53L1504.35 2535.43L1530.03 2531.88L1543.51 2515.99H1554.57L1569.19 2518.41L1588.76 2508.62L1602.24 2502.52L1649.91 2503.79L1659.7 2517.27L1671.9 2525.78V2535.57L1707.36 2532.02L1686.65 2552.73V2569.9L1697.58 2577.13L1684.1 2589.33L1686.51 2640.68H1707.22L1715.74 2627.2L1740.28 2618.69V2634.58L1727.94 2648.06L1725.52 2655.29L1740.14 2661.39V2679.69L1755.88 2686.92V2694.16L1743.68 2705.22L1744.96 2720.97L1755.88 2729.62L1744.96 2736.85L1734.04 2716.14H1716.87L1721.84 2734.44L1714.46 2755.29L1718.15 2763.81L1740.14 2765.08L1755.88 2754.16L1769.36 2767.64L1791.35 2770.05V2795.72L1779.15 2801.82L1791.35 2815.3L1802.27 2831.18L1821.71 2832.46L1826.67 2844.66H1805.96V2859.27L1815.75 2866.5H1840.15L1849.94 2854.31L1874.34 2849.48H1886.54L1864.55 2866.5L1870.65 2872.6L1868.24 2882.39L1871.93 2888.49H1886.54L1895.2 2875.02L1907.4 2856.72L1913.5 2864.09V2873.88L1923.29 2875.16L1934.21 2879.98L1944 2862.96L1953.79 2876.43V2895.87L1968.4 2903.24H2007.55V2911.75H2021.03L2028.41 2894.59L2045.43 2878.7V2887.36L2061.32 2884.95V2816.57L2105.3 2811.75L2134.67 2823.95L2167.58 2821.54L2195.67 2853.31L2239.65 2855.72L2300.65 2819.13V2803.24L2310.44 2809.34L2317.82 2806.93V2789.76L2349.6 2743.38L2414.29 2750.61L2430.03 2729.9L2417.83 2721.25L2436.13 2715.15L2444.65 2700.54L2456.85 2704.23V2724.94L2445.92 2737.14L2435 2762.81L2464.37 2781.11V2795.72L2483.8 2789.62L2489.9 2759.12L2496 2743.24V2731.04L2478.98 2716.43L2487.49 2690.75L2529.06 2692.03V2700.54L2549.77 2695.58L2602.26 2649.19L2634.04 2650.47L2643.83 2656.57L2678.02 2655.29L2712.21 2622.38L2770.94 2572.31L2816.05 2558.83L2857.62 2528.33L2869.82 2510.04L2883.3 2508.76L2893.09 2524.65L2901.6 2517.41L2913.8 2493.58L2934.51 2484.36L2945.58 2475.85H2985.87L3005.3 2453.86L3019.92 2455V2467.34L3027.15 2480.81L3034.53 2478.4L3039.35 2457.55L3048 2455.14V2445.35L3041.9 2433.15L3026.02 2424.64L3012.54 2406.34L2985.73 2397.83V2380.67L2986.86 2366.06L2996.65 2357.55L2991.68 2348.89L2979.48 2346.48L2972.25 2328.18L2959.91 2311.02L2994.1 2304.92L3007.57 2314.71L3031.97 2324.5L3047.86 2330.6L3062.48 2350.03L3085.6 2372.02L3116.1 2386.63L3160.08 2396.41L3168.73 2387.9L3162.63 2376.84L3143.2 2353.72L3138.23 2329.32L3145.47 2312.16V2271.87L3168.73 2253.57L3196.82 2255.98L3206.61 2268.18V2294.99L3212.71 2315.7L3234.7 2327.9L3243.21 2322.94L3232.29 2305.91L3234.7 2277.83L3243.21 2247.33L3232.29 2203.36L3233.57 2180.23L3254.28 2164.35L3239.67 2155.84L3222.64 2150.87L3195.83 2137.4L3161.64 2105.62L3142.2 2066.47C3142.2 2066.47 3116.53 2007.75 3115.39 2004.06C3114.11 2000.51 3103.19 1941.78 3103.19 1941.78L3131.28 1881.92L3191.15 1852.56L3211.86 1841.64L3221.65 1771.99L3225.2 1684.04L3270.45 1664.47L3288.75 1645.03L3326.63 1676.81L3338.69 1680.5V-455.197H2081.75H2082.32ZM2614.03 2232.01L2587.51 2234.71L2582.82 2226.48L2563.53 2219.24L2517.71 2256.83L2481.11 2270.59L2472.88 2262.37H2444.36L2417.83 2270.59L2394 2273.29L2390.31 2263.22L2364.63 2260.38V2273.15L2344.49 2282.37L2327.04 2253.85L2311.43 2251.16L2296.82 2262.08L2258.38 2255.7L2247.45 2238.25H2232.84L2217.23 2253.85L2133.82 2271.3L2022.03 2359.67V2372.02L2000.04 2402.23L1962.58 2411.31L1957.05 2404.07L1946.13 2395L1926.83 2418.83H1826.96L1800.86 2399.53L1799.15 2395.7L1800.86 2394.57H1798.59L1792.2 2381.09L1773.9 2372.02L1766.67 2348.19H1745.53V2332.58L1778.44 2315.13V2300.52L1766.52 2290.45L1767.37 2274L1779.29 2254.71L1796.74 2256.55L1806.81 2250.17L1811.5 2206.19L1804.12 2187.89L1794.05 2161.37L1799.58 2134.7L1794.05 2084.34L1808.66 2081.51L1816.89 2100.8L1810.5 2115.41L1813.34 2134.7L1822.42 2136.54L1823.27 2123.78L1831.5 2109.17L1853.49 2105.62L1855.33 2078.1L1848.95 2048.74L1839.87 2034.98L1840.72 2022.21L1834.34 2002.07L1843.56 2009.31L1858.17 2014.84L1881.01 1997.39L1892.08 1972.57L1887.39 1964.34L1869.09 1961.64L1858.17 1952.57L1872.78 1947.03L1875.48 1955.26L1897.47 1954.27L1896.62 1945.19L1912.22 1914.98L1941.59 1891.14L1979.04 1885.61L1991.95 1892.99L1990.11 1903.06L1971.8 1907.6L1969.11 1914.98L1988.4 1917.67L1977.48 1925.9L1978.33 1935.97L2046.99 1934.12L2053.38 1921.36L2078.2 1915.83L2088.28 1922.21L2104.73 1925.05L2106.44 1935.12L2058.77 1977.25L2063.31 2002.07L2123.89 2016.68L2132.96 2042.36L2127.43 2056.12L2130.27 2074.41L2169.57 2078.1L2180.49 2058.81L2190.56 2026.61H2225.32C2225.32 2026.61 2226.31 2023.06 2224.47 2017.53C2222.62 2012.14 2246.46 1981.79 2246.46 1981.79H2301.5L2316.11 1973.56L2319.8 1961.64L2304.2 1959.8L2311.58 1941.5L2323.92 1937.39L2328.88 1952.57L2415.99 1996.54H2453.58L2506.78 2016.68L2535.16 2055.97H2604.81L2643.26 2072.43L2644.11 2097.25L2670.78 2113.71L2678.02 2135.69L2671.63 2173.14L2613.89 2231.87L2614.03 2232.01Z" fill="#F4F4F4" stroke="#AFAFAF" stroke-width="2" stroke-miterlimit="10"/>
<path d="M2390.45 1772.13L2354.7 1791.42L2357.4 1811.57H2387.76L2411.59 1821.64L2417.97 1832.56H2390.45L2369.31 1920.51H2333.56L2321.65 1930.58L2323.92 1937.39L2311.57 1941.5L2305.19 1930.58L2270.43 1944.34L2254.83 1969.02C2254.83 1969.02 2248.44 1956.25 2246.6 1953.42C2244.76 1950.72 2237.52 1948.88 2237.52 1948.88L2228.44 1964.48H2211.98V1950.72L2207.44 1942.49L2187.3 1953.42L2184.6 1940.65L2173.68 1923.2L2132.4 1920.37L2121.47 1912.14L2131.55 1901.07L2141.62 1905.75H2168.15L2177.37 1916.68H2186.45L2187.3 1901.07L2186.45 1870.01L2197.37 1872.7L2211.98 1871.85L2220.21 1847.03L2273.41 1803.06L2284.34 1804.9L2298.95 1798.52L2316.4 1765.61L2358.53 1750L2366.19 1741.63L2376.69 1730L2403.36 1708.87L2418.97 1720.78V1737.24L2390.59 1772.13H2390.45Z" fill="#C9C9C9" stroke="#AFAFAF" stroke-width="2" stroke-miterlimit="10"/>
<path d="M630.455 1155.65L634.995 1163.88L642.372 1173.1L636.414 1181.33V1196.93L642.372 1209.7C642.372 1209.7 667.057 1206.01 669.894 1209.7C672.59 1213.38 669.894 1224.31 669.894 1224.31L680.818 1229.27H697.275V1205.02L710.043 1205.87V1192.39L699.97 1182.04L713.731 1169.27V1155.51L698.126 1123.45L685.358 1131.68L686.209 1145.44L696.281 1148.13L693.586 1163.74H688.053L686.209 1150.97L677.981 1152.81L672.022 1163.74L666.915 1148.13L672.022 1142.6L666.915 1135.23L656.843 1134.37L654.998 1144.45L656.843 1151.82L651.31 1156.36L636.697 1153.67L630.313 1155.51L630.455 1155.65Z" fill="#F4F4F4" stroke="#AFAFAF" stroke-width="2" stroke-miterlimit="10"/>
<path d="M829.211 1210.55L824.671 1221.61H835.736V1229.27H852.193L844.816 1214.24L829.211 1210.55Z" fill="#F4F4F4" stroke="#AFAFAF" stroke-width="2" stroke-miterlimit="10"/>
<path d="M621.234 1214.24L610.31 1229.27L605.771 1253.67H617.687L621.234 1233.95L630.455 1221.61L621.234 1214.24Z" fill="#F4F4F4" stroke="#AFAFAF" stroke-width="2" stroke-miterlimit="10"/>
<path d="M634.144 1233.95V1253.67L657.977 1261.9L672.164 1253.67L665.212 1233.95L648.756 1241.75L634.144 1233.95Z" fill="#F4F4F4" stroke="#AFAFAF" stroke-width="2" stroke-miterlimit="10"/>
<path d="M672.164 1238.07C674.434 1240.76 676.278 1247.85 676.278 1247.85H681.811V1261.76H691.032L687.344 1237.92H672.164V1238.07Z" fill="#F4F4F4" stroke="#AFAFAF" stroke-width="2" stroke-miterlimit="10"/>
<path d="M937.313 1015.5V1046.57L919.012 1081.46V1102.46L928.233 1094.23L941.001 1058.91L952.067 1041.04V1015.5H937.313Z" fill="#F4F4F4" stroke="#AFAFAF" stroke-width="2" stroke-miterlimit="10"/>
<path d="M1006.12 986.992V1002.6L1014.35 1034.65C1014.35 1034.65 1027.11 1026.43 1026.26 1023.73C1025.41 1021.04 1026.26 997.206 1026.26 997.206L1046.41 994.51V972.524L1051.94 966.14L1048.25 952.381H1028.96L1006.12 987.134V986.992Z" fill="#F4F4F4" stroke="#AFAFAF" stroke-width="2" stroke-miterlimit="10"/>
<path d="M1202.18 842.305L1209.41 849.682H1218.63L1224.17 860.604L1239.77 851.526V842.305H1246.16V828.546H1224.17L1215.94 836.773L1202.18 842.305Z" fill="#F4F4F4" stroke="#AFAFAF" stroke-width="2" stroke-miterlimit="10"/>
<path d="M1202.18 888.123C1199.48 890.818 1196.64 904.577 1196.64 904.577H1206.72V925.713H1213.1V912.947L1224.02 900.18L1246.01 902.024V883.725H1264.31L1258.78 870.959H1212.11L1212.96 884.718L1202.04 888.407L1202.18 888.123Z" fill="#F4F4F4" stroke="#AFAFAF" stroke-width="2" stroke-miterlimit="10"/>
<path d="M305.013 1718.09L318.348 1729.01L325.725 1749.86L354.95 1757.1L379.351 1766.88L400.205 1774.26V1804.76L374.527 1823.06L370.839 1845.04L359.915 1870.72L361.05 1902.49L375.804 1913.56H424.606H459.222L478.374 1928.17L506.463 1920.79L528.453 1945.19H543.065V1919.66L561.366 1918.38L580.943 1935.54L600.521 1940.37L634.143 1919.66L681.527 1915.97L700.679 1929.44L717.845 1925.76L712.879 1887.88L708.056 1868.31L747.069 1859.8V1831.71L765.37 1823.06L728.768 1785.18L681.527 1740.07V1707.02L657.977 1681.49L653.153 1665.6H672.164V1676.53L690.89 1665.6L750.758 1644.75L752.035 1630.14L789.913 1621.63V1597.09H800.837L824.103 1627.73L844.815 1613.69L836.303 1561.77L822.826 1549.57L818.003 1440.77L802.114 1426.16L804.525 1404.17L816.726 1385.87L807.363 1351.12" fill="#F4F4F4"/>
<path d="M305.013 1718.09L318.348 1729.01L325.725 1749.86L354.95 1757.1L379.351 1766.88L400.205 1774.26V1804.76L374.527 1823.06L370.839 1845.04L359.915 1870.72L361.05 1902.49L375.804 1913.56H424.606H459.222L478.374 1928.17L506.463 1920.79L528.453 1945.19H543.065V1919.66L561.366 1918.38L580.943 1935.54L600.521 1940.37L634.143 1919.66L681.527 1915.97L700.679 1929.44L717.845 1925.76L712.879 1887.88L708.056 1868.31L747.069 1859.8V1831.71L765.37 1823.06L728.768 1785.18L681.527 1740.07V1707.02L657.977 1681.49L653.153 1665.6H672.164V1676.53L690.89 1665.6L750.758 1644.75L752.035 1630.14L789.913 1621.63V1597.09H800.837L824.103 1627.73L844.815 1613.69L836.303 1561.77L822.826 1549.57L818.003 1440.77L802.114 1426.16L804.525 1404.17L816.726 1385.87L807.363 1351.12" stroke="#AFAFAF" stroke-width="2" stroke-miterlimit="10"/>
<path d="M548.03 1992.85L587.044 1988.6L617.687 1973.28H655.423L664.077 1983.06L671.312 2002.64L716.568 2023.49H749.481L739.834 2051.43L749.481 2074.7L758.135 2099.1" fill="#F4F4F4"/>
<path d="M548.03 1992.85L587.044 1988.6L617.687 1973.28H655.423L664.077 1983.06L671.312 2002.64L716.568 2023.49H749.481L739.834 2051.43L749.481 2074.7L758.135 2099.1" stroke="#AFAFAF" stroke-width="2" stroke-miterlimit="10"/>
<path d="M752.176 2123.07H775.159L796.013 2112.57H820.414L837.438 2132.15L869.216 2138.25V2099.1L902.271 2089.45V2074.7L882.694 2056.4L902.271 2046.61L914.472 2051.43L932.773 2030.72L944.973 2014.84L936.461 1995.26L929.935 1992.99L918.16 1988.6L897.306 2001.5L869.216 2002.64L844.815 2010.01L821.691 2022.21L820.414 2036.26H781.259L778.847 2029.59L746.644 2031.86" stroke="#AFAFAF" stroke-width="2" stroke-miterlimit="10"/>
<path d="M765.37 1823.06L784.948 1829.16H830.203L855.881 1790.01C855.881 1790.01 871.77 1788.73 875.459 1790.01C879.147 1791.28 904.825 1809.3 904.825 1809.3L910.925 1815.68L932.915 1819.37L954.904 1809.3L968.381 1820.5V1857.1L987.959 1886.46V1909.73H962.281L939.015 1924.34L945.115 1938.95L952.492 1945.05L939.015 1952.42V1973.13L929.935 1992.71" fill="#F4F4F4"/>
<path d="M765.37 1823.06L784.948 1829.16H830.203L855.881 1790.01C855.881 1790.01 871.77 1788.73 875.459 1790.01C879.147 1791.28 904.825 1809.3 904.825 1809.3L910.925 1815.68L932.915 1819.37L954.904 1809.3L968.381 1820.5V1857.1L987.959 1886.46V1909.73H962.281L939.015 1924.34L945.115 1938.95L952.492 1945.05L939.015 1952.42V1973.13L929.935 1992.71" stroke="#AFAFAF" stroke-width="2" stroke-miterlimit="10"/>
<path d="M844.815 1613.69L855.881 1602.05L865.528 1607.87L876.594 1624.04H907.095L929.084 1644.75L922.984 1656.95L944.973 1675.25L974.34 1666.74L1007.25 1670.43L1019.45 1692.41H1042.72L1061.02 1724.19L1092.8 1735.11L1080.6 1747.45H1065.99L1058.61 1758.37L1044 1765.75L1037.9 1797.52H1029.24L1010.94 1820.64H987.817H975.475L968.239 1830.43" stroke="#AFAFAF" stroke-width="2" stroke-miterlimit="10"/>
<path d="M987.817 1886.61L1002.43 1891.29L1022.01 1909.87L1059.89 1902.49H1084.29L1092.8 1886.61L1113.51 1878.09L1135.5 1864.62H1179.48L1205.16 1836.53L1221.05 1823.06H1252.82L1279.78 1830.43H1310.28V1793.84L1328.58 1763.2L1311.42 1757.1L1289.43 1747.45L1271.13 1735.11H1240.62L1222.32 1749.86L1210.12 1742.49L1184.44 1748.59L1169.83 1758.37L1148.98 1755.96L1130.68 1735.11H1092.8" fill="#F4F4F4"/>
<path d="M987.817 1886.61L1002.43 1891.29L1022.01 1909.87L1059.89 1902.49H1084.29L1092.8 1886.61L1113.51 1878.09L1135.5 1864.62H1179.48L1205.16 1836.53L1221.05 1823.06H1252.82L1279.78 1830.43H1310.28V1793.84L1328.58 1763.2L1311.42 1757.1L1289.43 1747.45L1271.13 1735.11H1240.62L1222.32 1749.86L1210.12 1742.49L1184.44 1748.59L1169.83 1758.37L1148.98 1755.96L1130.68 1735.11H1092.8" stroke="#AFAFAF" stroke-width="2" stroke-miterlimit="10"/>
<path d="M1106.7 1274.81L1158.2 1285.73L1226.01 1280.2L1258.92 1261.9L1295.53 1267.43L1283.33 1238.07L1287.01 1219.91L1278.5 1210.55L1268.71 1196.5L1207.99 1191.11" stroke="#AFAFAF" stroke-width="2" stroke-miterlimit="10"/>
<path d="M1295.53 1267.43L1333.4 1299.06L1360.36 1366.3V1420.06L1337.09 1455.52L1334.68 1470.13L1360.36 1479.92V1516.52L1374.97 1559.22L1398.24 1583.76L1408.03 1609.43V1632.55L1360.36 1666.74L1338.37 1716.24L1337.09 1754.68L1328.58 1763.2" stroke="#AFAFAF" stroke-width="2" stroke-miterlimit="10"/>
<path d="M944.974 2014.84L952.351 2036.26H973.063L987.817 2063.92L1008.53 2072.29L1019.45 2084.49L1042.72 2090.59H1101.31L1120.89 2063.92H1140.47V2052.71H1164.87L1184.44 2040.51L1201.04 2044.2L1212.53 2052.71L1228.42 2041.79L1256.51 2036.26L1285.88 1973.28L1307.87 1937.95V1901.22L1328.58 1882.92H1345.75L1356.67 1862.21L1337.09 1842.63L1310.28 1830.43" fill="#F4F4F4"/>
<path d="M944.974 2014.84L952.351 2036.26H973.063L987.817 2063.92L1008.53 2072.29L1019.45 2084.49L1042.72 2090.59H1101.31L1120.89 2063.92H1140.47V2052.71H1164.87L1184.44 2040.51L1201.04 2044.2L1212.53 2052.71L1228.42 2041.79L1256.51 2036.26L1285.88 1973.28L1307.87 1937.95V1901.22L1328.58 1882.92H1345.75L1356.67 1862.21L1337.09 1842.63L1310.28 1830.43" stroke="#AFAFAF" stroke-width="2" stroke-miterlimit="10"/>
<path d="M1178.2 1112.67H1191.82L1211.4 1082.88L1240.77 1078.06L1322.62 1073.24L1343.33 1086.71L1361.64 1083.02L1377.52 1059.05L1384.9 1064.73L1392.28 1085.86H1450.87L1471.58 1130.54L1482.51 1135.37V1173.24C1482.51 1173.24 1470.31 1174.52 1467.89 1178.06C1465.48 1181.75 1465.48 1210.41 1465.48 1210.41L1450.87 1219.77L1441.08 1238.21L1458.25 1246.44L1447.32 1267.15L1385.04 1295.23L1361.78 1285.44L1355.68 1295.23L1333.69 1298.92" stroke="#AFAFAF" stroke-width="2" stroke-miterlimit="10"/>
<path d="M1340.36 924.295L1360.36 919.188L1378.66 903.443L1408.03 909.542L1437.25 925.713L1482.51 932.664L1498.39 918.053V898.194L1482.51 870.675L1493.43 860.604L1488.61 828.546L1493.43 805.708L1467.89 788.544L1491.02 780.033L1501.23 745.422" fill="#F4F4F4"/>
<path d="M1340.36 924.295L1360.36 919.188L1378.66 903.443L1408.03 909.542L1437.25 925.713L1482.51 932.664L1498.39 918.053V898.194L1482.51 870.675L1493.43 860.604L1488.61 828.546L1493.43 805.708L1467.89 788.544L1491.02 780.033L1501.23 745.422" stroke="#AFAFAF" stroke-width="2" stroke-miterlimit="10"/>
<path d="M1490.17 925.713L1514.28 952.239H1528.9V985.148L1558.26 1009.69V1049.97L1538.69 1084.16L1535 1100.05L1513.01 1095.08L1506.91 1087.85L1501.23 1100.05L1490.17 1118.35L1482.51 1135.51" fill="#F4F4F4"/>
<path d="M1490.17 925.713L1514.28 952.239H1528.9V985.148L1558.26 1009.69V1049.97L1538.69 1084.16L1535 1100.05L1513.01 1095.08L1506.91 1087.85L1501.23 1100.05L1490.17 1118.35L1482.51 1135.51" stroke="#AFAFAF" stroke-width="2" stroke-miterlimit="10"/>
<path d="M1360.36 1516.52L1408.03 1484.74L1458.11 1471.27H1537.41L1580.25 1483.61L1590.04 1494.53L1635.16 1487.16L1653.46 1471.27L1696.3 1465.17L1724.39 1484.74L1759.86 1482.33L1790.36 1459.07V1418.78L1814.76 1398.07L1845.26 1379.77L1838.02 1355.23L1814.76 1321.05L1812.35 1294.24L1823.27 1275.94L1839.16 1285.73H1857.46L1874.63 1267.43V1238.35L1861.15 1229.27L1844.12 1238.35L1808.66 1222.18L1795.18 1196.5L1767.09 1191.11L1754.89 1150.12L1719.42 1069.55L1692.61 1049.97L1656.01 1058.91V1078.06H1638.84V1054.51L1619.27 1049.97L1608.34 1058.91H1586.35V1049.97H1558.26" fill="#F4F4F4"/>
<path d="M1360.36 1516.52L1408.03 1484.74L1458.11 1471.27H1537.41L1580.25 1483.61L1590.04 1494.53L1635.16 1487.16L1653.46 1471.27L1696.3 1465.17L1724.39 1484.74L1759.86 1482.33L1790.36 1459.07V1418.78L1814.76 1398.07L1845.26 1379.77L1838.02 1355.23L1814.76 1321.05L1812.35 1294.24L1823.27 1275.94L1839.16 1285.73H1857.46L1874.63 1267.43V1238.35L1861.15 1229.27L1844.12 1238.35L1808.66 1222.18L1795.18 1196.5L1767.09 1191.11L1754.89 1150.12L1719.42 1069.55L1692.61 1049.97L1656.01 1058.91V1078.06H1638.84V1054.51L1619.27 1049.97L1608.34 1058.91H1586.35V1049.97H1558.26" stroke="#AFAFAF" stroke-width="2" stroke-miterlimit="10"/>
<path d="M1845.26 1379.78L1923.43 1349.28L1958.9 1337.08L2006.56 1371.26V1418.93L2022.45 1428.71H2078.63L2099.34 1451.98V1477.65H2126.16L2142.04 1464.18L2206.74 1458.08L2220.21 1444.6L2233.69 1448.29L2271.57 1483.75C2271.57 1483.75 2291.15 1492.26 2292.28 1483.75C2293.56 1475.24 2292.28 1464.18 2292.28 1464.18H2314.27L2325.19 1471.55L2337.4 1461.76L2374 1466.59L2410.6 1487.44L2421.52 1516.66L2433.72 1528.86V1546.02L2405.63 1558.22L2442.23 1598.51L2436.13 1647.3L2417.83 1663.19H2386.06L2378.68 1685.18L2359.1 1701.07L2365.63 1741.78" fill="#F4F4F4"/>
<path d="M1845.26 1379.78L1923.43 1349.28L1958.9 1337.08L2006.56 1371.26V1418.93L2022.45 1428.71H2078.63L2099.34 1451.98V1477.65H2126.16L2142.04 1464.18L2206.74 1458.08L2220.21 1444.6L2233.69 1448.29L2271.57 1483.75C2271.57 1483.75 2291.15 1492.26 2292.28 1483.75C2293.56 1475.24 2292.28 1464.18 2292.28 1464.18H2314.27L2325.19 1471.55L2337.4 1461.76L2374 1466.59L2410.6 1487.44L2421.52 1516.66L2433.72 1528.86V1546.02L2405.63 1558.22L2442.23 1598.51L2436.13 1647.3L2417.83 1663.19H2386.06L2378.68 1685.18L2359.1 1701.07L2365.63 1741.78" stroke="#AFAFAF" stroke-width="2" stroke-miterlimit="10"/>
<path d="M1581.1 1811.42L1617.42 1816.96L1660.83 1852.42L1669.34 1884.19L1697.43 1897.67L1725.52 1945.19L1731.62 2012.43L1745.39 2055.12H1756.17" fill="#F4F4F4"/>
<path d="M1581.1 1811.42L1617.42 1816.96L1660.83 1852.42L1669.34 1884.19L1697.43 1897.67L1725.52 1945.19L1731.62 2012.43L1745.39 2055.12H1756.17" stroke="#AFAFAF" stroke-width="2" stroke-miterlimit="10"/>
<path d="M1212.53 2052.71L1228.42 2074.7H1239.35L1251.55 2096.68V2111.3L1271.13 2123.49H1295.53V2144.2H1309V2156.4H1295.53V2169.88H1313.83L1328.44 2178.39L1346.74 2195.55H1360.22V2171.16L1390.72 2172.43V2187.04C1390.72 2187.04 1377.24 2182.22 1376.11 2188.32L1374.83 2194.42L1390.72 2206.62V2220.09L1372.42 2237.26L1373.7 2271.44L1390.86 2297.12C1390.86 2297.12 1414.13 2301.94 1414.13 2306.91C1414.13 2311.87 1408.03 2342.37 1408.03 2342.37H1388.45L1384.76 2377.83L1394.55 2393.72L1388.45 2404.64L1344.47 2391.17L1328.58 2395.99L1318.79 2413.15L1274.81 2418.97L1265.03 2444.93L1250.41 2451.03L1244.31 2413.15L1222.32 2400.95L1202.75 2359.39L1241.9 2356.98L1237.08 2341.09L1202.89 2345.92L1140.61 2294.57L1158.34 2277.4L1163.87 2274.99L1145.57 2251.73H1171.25L1167.56 2238.25L1140.75 2224.78V2202.79L1151.11 2180.8V2163.64L1133.37 2149.03L1151.11 2138.11V2125.91L1133.37 2127.18L1116.21 2102.78V2070.58" fill="#F4F4F4"/>
<path d="M1212.53 2052.71L1228.42 2074.7H1239.35L1251.55 2096.68V2111.3L1271.13 2123.49H1295.53V2144.2H1309V2156.4H1295.53V2169.88H1313.83L1328.44 2178.39L1346.74 2195.55H1360.22V2171.16L1390.72 2172.43V2187.04C1390.72 2187.04 1377.24 2182.22 1376.11 2188.32L1374.83 2194.42L1390.72 2206.62V2220.09L1372.42 2237.26L1373.7 2271.44L1390.86 2297.12C1390.86 2297.12 1414.13 2301.94 1414.13 2306.91C1414.13 2311.87 1408.03 2342.37 1408.03 2342.37H1388.45L1384.76 2377.83L1394.55 2393.72L1388.45 2404.64L1344.47 2391.17L1328.58 2395.99L1318.79 2413.15L1274.81 2418.97L1265.03 2444.93L1250.41 2451.03L1244.31 2413.15L1222.32 2400.95L1202.75 2359.39L1241.9 2356.98L1237.08 2341.09L1202.89 2345.92L1140.61 2294.57L1158.34 2277.4L1163.87 2274.99L1145.57 2251.73H1171.25L1167.56 2238.25L1140.75 2224.78V2202.79L1151.11 2180.8V2163.64L1133.37 2149.03L1151.11 2138.11V2125.91L1133.37 2127.18L1116.21 2102.78V2070.58" stroke="#AFAFAF" stroke-width="2" stroke-miterlimit="10"/>
<path d="M1390.86 2220.09L1408.03 2231.02V2251.87H1442.22L1519.11 2235.98L1574.01 2245.77L1600.96 2251.87L1668.64 2198.11L1751.2 2193.14L1782.98 2222.51L1794.05 2217.68L1811.35 2206.34" fill="#F4F4F4"/>
<path d="M1390.86 2220.09L1408.03 2231.02V2251.87H1442.22L1519.11 2235.98L1574.01 2245.77L1600.96 2251.87L1668.64 2198.11L1751.2 2193.14L1782.98 2222.51L1794.05 2217.68L1811.35 2206.34" stroke="#AFAFAF" stroke-width="2" stroke-miterlimit="10"/>
<path d="M1015.48 2341.23L996.329 2305.63L958.451 2267.76L944.973 2251.87V2228.61L932.773 2211.58L918.161 2201.8L902.271 2182.22V2143.07L914.472 2133.42L929.084 2148.03L937.738 2163.92L949.939 2162.65L952.35 2148.03L953.485 2138.25H980.44L1000.02 2151.72L1045.13 2152.86L1054.92 2162.65L1064.71 2145.62L1075.77 2149.17L1098.9 2152.86L1116.06 2162.65V2171.16L1134.37 2168.74L1143.02 2157.4" fill="#F4F4F4"/>
<path d="M1015.48 2341.23L996.329 2305.63L958.451 2267.76L944.973 2251.87V2228.61L932.773 2211.58L918.161 2201.8L902.271 2182.22V2143.07L914.472 2133.42L929.084 2148.03L937.738 2163.92L949.939 2162.65L952.35 2148.03L953.485 2138.25H980.44L1000.02 2151.72L1045.13 2152.86L1054.92 2162.65L1064.71 2145.62L1075.77 2149.17L1098.9 2152.86L1116.06 2162.65V2171.16L1134.37 2168.74L1143.02 2157.4" stroke="#AFAFAF" stroke-width="2" stroke-miterlimit="10"/>
<path d="M1384.76 -229.371L1373.84 -201.994L1340.36 -180.008L1330.28 -131.211V-84.8263L1340.36 -60.2863H1384.76L1403.06 -18.8661V20.2845L1390.86 44.6827L1388.45 66.6695L1420.79 105.82L1456.83 154.616L1434.84 164.404L1437.25 176.603H1449.45L1456.83 193.767H1434.84L1444.63 227.953H1456.83V247.528H1482.51V274.338L1501.23 296.325V352.497L1558.26 381.86L1569.19 428.245L1558.26 506.404L1501.23 594.351L1441.65 657.191" fill="#F4F4F4"/>
<path d="M1384.76 -229.371L1373.84 -201.994L1340.36 -180.008L1330.28 -131.211V-84.8263L1340.36 -60.2863H1384.76L1403.06 -18.8661V20.2845L1390.86 44.6827L1388.45 66.6695L1420.79 105.82L1456.83 154.616L1434.84 164.404L1437.25 176.603H1449.45L1456.83 193.767H1434.84L1444.63 227.953H1456.83V247.528H1482.51V274.338L1501.23 296.325V352.497L1558.26 381.86L1569.19 428.245L1558.26 506.404L1501.23 594.351L1441.65 657.191" stroke="#AFAFAF" stroke-width="2" stroke-miterlimit="10"/>
<path d="M651.025 883.867L668.901 860.604L689.046 844.575V814.786L679.966 798.332L689.046 768.969L720.256 758.046L733.024 704.853L711.035 664.567L720.256 649.957H733.024L744.09 635.204V620.594L723.945 600.451L722.101 556.478L725.789 538.179L716.568 512.504L723.945 479.595L716.568 437.465L769.768 384.272H811.902L820.982 343.986L804.525 331.078L832.047 265.118V193.767L864.96 180.859V140.573L896.171 109.508V41.7039L929.084 3.12067L952.918 19.7171L962.139 10.4969V-27.9445L973.063 -39.0088H1028.96V-97.5928L1083.01 -117.736L1097.76 -104.969L1114.22 -81.1382L1148.98 -75.6061V-97.5928L1163.73 -101.281L1196.64 -90.2166L1211.26 -103.125V-196.462L1264.46 -220.293L1304.75 -207.527L1330.28 -178.164L1333.69 -147.524" fill="#F4F4F4"/>
<path d="M651.025 883.867L668.901 860.604L689.046 844.575V814.786L679.966 798.332L689.046 768.969L720.256 758.046L733.024 704.853L711.035 664.567L720.256 649.957H733.024L744.09 635.204V620.594L723.945 600.451L722.101 556.478L725.789 538.179L716.568 512.504L723.945 479.595L716.568 437.465L769.768 384.272H811.902L820.982 343.986L804.525 331.078L832.047 265.118V193.767L864.96 180.859V140.573L896.171 109.508V41.7039L929.084 3.12067L952.918 19.7171L962.139 10.4969V-27.9445L973.063 -39.0088H1028.96V-97.5928L1083.01 -117.736L1097.76 -104.969L1114.22 -81.1382L1148.98 -75.6061V-97.5928L1163.73 -101.281L1196.64 -90.2166L1211.26 -103.125V-196.462L1264.46 -220.293L1304.75 -207.527L1330.28 -178.164L1333.69 -147.524" stroke="#AFAFAF" stroke-width="2" stroke-miterlimit="10"/>
<path d="M1356.67 1862.21H1420.23L1467.89 1850.01L1498.4 1862.21L1531.31 1856.11L1538.69 1840.22H1569.19L1583.8 1804.76L1663.24 1777.95L1704.81 1798.66C1704.81 1798.66 1721.98 1785.32 1725.52 1789.58C1729.21 1793.84 1764.68 1809.72 1764.68 1809.72L1772.06 1837.81L1792.77 1852.42L1801.28 1880.51L1830.65 1891.29L1845.26 1931.86V1945.33H1787.8L1776.88 1968.59L1780.57 1988.74L1758.58 2019.94L1756.17 2055.41L1781.85 2074.98L1839.87 2035.26" stroke="#AFAFAF" stroke-width="2" stroke-miterlimit="10"/>
<path d="M651.877 2213.99L639.251 2242.79L651.877 2256.55L664.078 2248.18" stroke="#AFAFAF" stroke-width="2" stroke-miterlimit="10"/>
<path d="M936.462 2098.95C935.185 2097.54 933.483 2096.83 931.355 2096.83C929.227 2096.83 929.227 2096.97 928.375 2097.39C927.524 2097.82 926.673 2098.25 926.106 2098.95C925.396 2099.66 924.971 2100.37 924.545 2101.22C924.261 2102.08 923.978 2103.07 923.978 2104.06V2121.22C923.978 2122.64 924.261 2123.78 924.687 2124.77C925.112 2125.62 925.68 2126.47 926.389 2127.04C927.099 2127.61 927.95 2128.03 928.801 2128.32C929.652 2128.6 930.503 2128.6 931.355 2128.6C932.206 2128.6 933.341 2128.46 934.192 2128.03C935.043 2127.61 935.752 2127.04 936.462 2126.47C937.171 2125.76 937.597 2125.05 938.022 2124.2C938.448 2123.35 938.59 2122.36 938.59 2121.51V2119.52H934.05V2121.08C934.05 2121.65 934.05 2122.22 933.766 2122.64C933.625 2123.07 933.341 2123.35 933.057 2123.64C932.773 2123.92 932.49 2124.06 932.064 2124.2C931.78 2124.2 931.355 2124.35 931.071 2124.35C930.078 2124.35 929.368 2124.06 928.943 2123.35C928.517 2122.79 928.375 2121.93 928.375 2121.08V2105.05C928.375 2104.06 928.517 2103.07 928.943 2102.5C929.368 2101.79 930.078 2101.51 931.213 2101.51C932.348 2101.51 932.773 2101.79 933.199 2102.5C933.766 2103.21 933.908 2103.92 933.908 2104.77V2106.33H938.448V2104.63C938.448 2103.49 938.306 2102.5 937.88 2101.65C937.455 2100.8 937.029 2099.95 936.32 2099.24L936.462 2098.95Z" fill="#606060"/>
<path d="M953.485 2114.13C954.904 2113.28 955.897 2112.29 956.464 2111.01C957.032 2109.74 957.315 2108.17 957.315 2106.33C957.315 2100.23 954.62 2097.11 949.371 2097.11H942.136V2128.32H946.675V2114.98H949.371L953.485 2128.32H958.167L953.343 2113.99L953.485 2114.13ZM952.776 2108.32C952.776 2108.88 952.492 2109.45 952.35 2109.88C952.066 2110.3 951.783 2110.59 951.215 2110.87C950.79 2111.15 950.08 2111.15 949.371 2111.15H946.817V2101.37H949.087C950.648 2101.37 951.641 2101.79 952.208 2102.64C952.492 2103.07 952.634 2103.64 952.776 2104.2C952.776 2104.77 952.776 2105.48 952.776 2106.33C952.776 2107.18 952.776 2107.75 952.776 2108.46V2108.32Z" fill="#606060"/>
<path d="M963.132 2126.76C963.842 2127.47 964.693 2127.89 965.544 2128.18C966.395 2128.46 967.388 2128.6 968.24 2128.6C969.091 2128.6 970.084 2128.46 970.935 2128.18C971.786 2127.89 972.637 2127.32 973.347 2126.76C974.056 2126.19 974.624 2125.34 975.049 2124.49C975.475 2123.49 975.759 2122.36 975.759 2121.08V2104.63C975.759 2103.35 975.475 2102.22 975.049 2101.22C974.624 2100.23 974.056 2099.52 973.347 2098.81C972.637 2098.25 971.786 2097.68 970.935 2097.39C970.084 2097.11 969.091 2096.97 968.24 2096.97C967.388 2096.97 966.395 2097.11 965.544 2097.39C964.693 2097.68 963.842 2098.25 963.132 2098.81C962.423 2099.52 961.856 2100.23 961.43 2101.22C961.004 2102.22 960.721 2103.35 960.721 2104.63V2121.08C960.721 2122.36 961.004 2123.49 961.43 2124.49C961.856 2125.48 962.423 2126.19 963.132 2126.76ZM965.119 2104.49C965.119 2103.35 965.402 2102.64 965.97 2102.08C966.537 2101.51 967.247 2101.37 968.098 2101.37C968.949 2101.37 969.658 2101.65 970.226 2102.08C970.793 2102.5 971.077 2103.35 971.077 2104.49V2120.94C971.077 2122.08 970.793 2122.79 970.226 2123.35C969.658 2123.92 968.949 2124.06 968.098 2124.06C967.247 2124.06 966.537 2123.78 965.97 2123.35C965.402 2122.79 965.119 2122.08 965.119 2120.94V2104.49Z" fill="#606060"/>
<path d="M982.852 2121.65H988.953L990.229 2128.32H994.769L987.818 2097.11H984.129L977.178 2128.32H981.717L982.994 2121.65H982.852ZM985.832 2106.19L987.96 2117.54H983.42L985.548 2106.19H985.832Z" fill="#606060"/>
<path d="M997.465 2128.46H1002V2101.37H1007.11V2097.11H992.357V2101.37H997.465V2128.46Z" fill="#606060"/>
<path d="M1013.78 2097.11H1009.24V2128.32H1013.78V2097.11Z" fill="#606060"/>
<path d="M1021.87 2121.65H1027.97L1029.24 2128.32H1033.78L1026.83 2097.11H1023.14L1016.19 2128.32H1020.73L1022.01 2121.65H1021.87ZM1024.84 2106.19L1026.97 2117.54H1022.43L1024.56 2106.19H1024.84Z" fill="#606060"/>
<path d="M1068.68 1974.69H1074.21V1988.6H1078.61V1957.39H1074.21V1970.72H1068.68V1957.39H1064.14V1988.6H1068.68V1974.69Z" fill="#606060"/>
<path d="M1082.87 1981.64C1082.87 1982.64 1083.01 1983.63 1083.44 1984.48C1083.86 1985.33 1084.29 1986.18 1085 1986.75C1085.71 1987.46 1086.41 1987.89 1087.27 1988.31C1088.12 1988.74 1089.11 1988.88 1090.1 1988.88C1091.1 1988.88 1092.09 1988.74 1092.94 1988.31C1093.79 1987.89 1094.64 1987.46 1095.21 1986.75C1095.92 1986.04 1096.35 1985.33 1096.77 1984.48C1097.2 1983.63 1097.34 1982.64 1097.34 1981.64V1957.39H1092.8V1981.22C1092.8 1982.35 1092.51 1983.2 1091.95 1983.63C1091.38 1984.2 1090.81 1984.48 1089.96 1984.48C1089.11 1984.48 1088.54 1984.2 1087.97 1983.63C1087.41 1983.06 1087.12 1982.35 1087.12 1981.22V1957.39H1082.58V1981.64H1082.87Z" fill="#606060"/>
<path d="M1105.85 1969.87H1105.99L1112.8 1988.6H1117.06V1957.39H1112.52V1976.11L1105.71 1957.39H1101.45V1988.6H1105.85V1969.87Z" fill="#606060"/>
<path d="M1135.78 1966.32V1964.76C1135.78 1963.49 1135.5 1962.35 1135.07 1961.36C1134.65 1960.37 1134.08 1959.66 1133.37 1958.95C1132.66 1958.38 1131.81 1957.81 1130.96 1957.53C1130.11 1957.25 1129.12 1957.1 1128.27 1957.1C1127.41 1957.1 1126.42 1957.25 1125.57 1957.53C1124.72 1957.81 1123.87 1958.38 1123.16 1958.95C1122.45 1959.66 1121.88 1960.37 1121.46 1961.36C1121.03 1962.35 1120.75 1963.49 1120.75 1964.76V1981.22C1120.75 1982.5 1121.03 1983.63 1121.46 1984.62C1121.88 1985.62 1122.45 1986.33 1123.16 1986.89C1123.87 1987.6 1124.72 1988.03 1125.57 1988.31C1126.42 1988.6 1127.41 1988.74 1128.27 1988.74C1129.12 1988.74 1130.11 1988.6 1130.96 1988.31C1131.81 1988.03 1132.66 1987.46 1133.37 1986.89C1134.08 1986.33 1134.65 1985.47 1135.07 1984.62C1135.5 1983.63 1135.78 1982.5 1135.78 1981.22V1971.43H1127.7V1975.4H1131.24V1981.22C1131.24 1982.35 1130.96 1983.06 1130.39 1983.63C1129.83 1984.2 1129.12 1984.34 1128.27 1984.34C1127.41 1984.34 1126.7 1984.06 1126.14 1983.63C1125.57 1983.06 1125.29 1982.35 1125.29 1981.22V1964.76C1125.29 1963.63 1125.57 1962.92 1126.14 1962.35C1126.7 1961.79 1127.41 1961.64 1128.27 1961.64C1129.12 1961.64 1129.83 1961.93 1130.39 1962.35C1130.96 1962.78 1131.24 1963.63 1131.24 1964.76V1966.32H1135.78Z" fill="#606060"/>
<path d="M1144.72 1957.39L1137.77 1988.6H1142.31L1143.59 1981.93H1149.69L1150.96 1988.6H1155.5L1148.55 1957.39H1144.86H1144.72ZM1144.3 1977.67L1146.42 1966.32L1148.55 1977.67H1144.01H1144.3Z" fill="#606060"/>
<path d="M1171.96 1971.15C1172.53 1969.87 1172.81 1968.31 1172.81 1966.47C1172.81 1960.37 1170.12 1957.25 1164.87 1957.25H1157.63V1988.45H1162.17V1975.12H1164.87L1168.98 1988.45H1173.66L1168.84 1974.13C1170.26 1973.28 1171.25 1972.28 1171.82 1971.01L1171.96 1971.15ZM1168.13 1968.45C1168.13 1969.02 1167.85 1969.59 1167.7 1970.01C1167.42 1970.44 1167.14 1970.72 1166.57 1971.01C1166.14 1971.29 1165.43 1971.29 1164.73 1971.29H1162.17V1961.5H1164.44C1166 1961.5 1167 1961.93 1167.56 1962.78C1167.85 1963.2 1167.99 1963.77 1168.13 1964.34C1168.13 1964.91 1168.13 1965.62 1168.13 1966.47C1168.13 1967.32 1168.13 1967.89 1168.13 1968.59V1968.45Z" fill="#606060"/>
<path d="M1185.58 1957.39L1182.03 1969.73H1181.89L1178.34 1957.39H1173.66L1179.76 1975.4V1988.6H1184.16V1975.4L1190.4 1957.39H1185.58Z" fill="#606060"/>
<path d="M1067.97 1828.59C1068.68 1829.3 1069.39 1829.72 1070.38 1830.15C1071.38 1830.57 1072.37 1830.72 1073.36 1830.72C1074.36 1830.72 1076.06 1830.43 1077.05 1830.01C1078.04 1829.58 1078.9 1828.87 1079.46 1828.02C1080.03 1827.17 1080.46 1826.32 1080.74 1825.18C1081.02 1824.05 1081.17 1822.77 1081.17 1821.5C1081.17 1820.22 1081.17 1819.37 1081.02 1818.38C1081.02 1817.52 1080.74 1816.67 1080.31 1815.96C1080.03 1815.25 1079.46 1814.69 1078.9 1814.12C1078.33 1813.55 1077.48 1813.13 1076.48 1812.84L1073.08 1811.42C1072.51 1811.14 1072.09 1811 1071.66 1810.72C1071.23 1810.43 1071.09 1810.15 1070.95 1809.86C1070.81 1809.58 1070.67 1809.15 1070.67 1808.73C1070.67 1808.3 1070.67 1807.74 1070.67 1807.17C1070.67 1806.6 1070.67 1806.18 1070.67 1805.61C1070.67 1805.18 1070.95 1804.76 1071.09 1804.33C1071.38 1804.05 1071.66 1803.62 1072.09 1803.48C1072.51 1803.2 1072.94 1803.2 1073.65 1803.2C1074.78 1803.2 1075.63 1803.62 1076.06 1804.33C1076.48 1805.04 1076.77 1806.03 1076.77 1807.03V1808.02H1081.31V1805.89C1081.31 1804.05 1080.6 1802.49 1079.32 1801.07C1078.61 1800.36 1077.9 1799.79 1076.91 1799.51C1075.92 1799.08 1074.92 1798.94 1073.79 1798.94C1072.65 1798.94 1071.38 1799.23 1070.38 1799.65C1069.39 1800.08 1068.68 1800.64 1067.97 1801.5C1067.26 1802.2 1066.84 1803.2 1066.55 1804.19C1066.27 1805.18 1066.13 1806.32 1066.13 1807.59C1066.13 1809.58 1066.41 1811.14 1067.12 1812.56C1067.83 1813.84 1069.11 1814.97 1070.95 1815.68L1074.21 1816.96C1074.78 1817.24 1075.21 1817.38 1075.49 1817.67C1075.77 1817.81 1076.06 1818.09 1076.34 1818.52C1076.48 1818.8 1076.63 1819.23 1076.63 1819.79C1076.63 1820.36 1076.63 1820.93 1076.63 1821.78C1076.63 1822.63 1076.63 1823.06 1076.63 1823.62C1076.63 1824.19 1076.48 1824.62 1076.2 1825.04C1075.92 1825.47 1075.63 1825.75 1075.21 1826.04C1074.78 1826.32 1074.21 1826.32 1073.36 1826.32C1072.23 1826.32 1071.38 1826.04 1070.95 1825.33C1070.53 1824.62 1070.24 1823.91 1070.24 1823.06V1821.64H1065.7V1823.34C1065.7 1824.33 1065.84 1825.33 1066.27 1826.32C1066.7 1827.17 1067.26 1828.02 1067.83 1828.73L1067.97 1828.59Z" fill="#606060"/>
<path d="M1084.57 1799.23V1830.43H1097.91V1825.89H1088.97V1799.23H1084.57Z" fill="#606060"/>
<path d="M1102.87 1828.73C1103.58 1829.44 1104.43 1829.86 1105.28 1830.15C1106.13 1830.43 1107.13 1830.57 1107.98 1830.57C1108.83 1830.57 1109.82 1830.43 1110.67 1830.15C1111.52 1829.86 1112.38 1829.3 1113.09 1828.73C1113.79 1828.16 1114.36 1827.31 1114.79 1826.46C1115.21 1825.47 1115.5 1824.33 1115.5 1823.06V1806.6C1115.5 1805.32 1115.21 1804.19 1114.79 1803.2C1114.36 1802.2 1113.79 1801.5 1113.09 1800.79C1112.38 1800.22 1111.52 1799.65 1110.67 1799.37C1109.82 1799.08 1108.83 1798.94 1107.98 1798.94C1107.13 1798.94 1106.13 1799.08 1105.28 1799.37C1104.43 1799.65 1103.58 1800.22 1102.87 1800.79C1102.16 1801.5 1101.59 1802.2 1101.17 1803.2C1100.74 1804.19 1100.46 1805.32 1100.46 1806.6V1823.06C1100.46 1824.33 1100.74 1825.47 1101.17 1826.46C1101.59 1827.45 1102.16 1828.16 1102.87 1828.73ZM1105 1806.6C1105 1805.47 1105.28 1804.76 1105.85 1804.19C1106.42 1803.62 1107.13 1803.48 1107.98 1803.48C1108.83 1803.48 1109.54 1803.76 1110.11 1804.19C1110.67 1804.62 1110.96 1805.47 1110.96 1806.6V1823.06C1110.96 1824.19 1110.67 1824.9 1110.11 1825.47C1109.54 1826.04 1108.83 1826.18 1107.98 1826.18C1107.13 1826.18 1106.42 1825.89 1105.85 1825.47C1105.28 1824.9 1105 1824.19 1105 1823.06V1806.6Z" fill="#606060"/>
<path d="M1127.41 1830.43L1133.94 1799.23H1129.12L1125.57 1821.07H1125.43L1121.88 1799.23H1117.2L1123.58 1830.43H1127.41Z" fill="#606060"/>
<path d="M1137.35 1830.43L1138.62 1823.77H1144.72L1146 1830.43H1150.54L1143.59 1799.23H1139.9L1132.95 1830.43H1137.49H1137.35ZM1141.74 1808.16L1143.87 1819.51H1139.33L1141.46 1808.16H1141.74Z" fill="#606060"/>
<path d="M1164.87 1830.43H1169.55L1162.31 1811.71L1168.41 1799.23H1163.87L1157.35 1813.41V1799.23H1152.81V1830.43H1157.35V1821.07L1159.76 1816.53L1164.87 1830.43Z" fill="#606060"/>
<path d="M1176.22 1799.23H1171.68V1830.43H1176.22V1799.23Z" fill="#606060"/>
<path d="M1184.3 1823.77H1190.4L1191.68 1830.43H1196.22L1189.27 1799.23H1185.58L1178.63 1830.43H1183.17L1184.44 1823.77H1184.3ZM1187.28 1808.16L1189.41 1819.51H1184.87L1187 1808.16H1187.28Z" fill="#606060"/>
<path d="M1035.63 1508.01H1037.9C1039.6 1508.01 1040.88 1507.72 1041.87 1507.16C1042.86 1506.59 1043.71 1505.74 1044.28 1504.74C1044.85 1503.89 1045.13 1503.04 1045.27 1502.05C1045.42 1501.06 1045.56 1499.92 1045.56 1498.5C1045.56 1497.08 1045.42 1495.1 1045.13 1494.11C1044.85 1492.97 1044.28 1492.12 1043.57 1491.27C1042.86 1490.42 1042.01 1489.85 1041.02 1489.57C1040.02 1489.28 1039.03 1489.14 1037.75 1489.14H1031.09V1520.35H1035.63V1508.15V1508.01ZM1035.63 1493.11H1037.9C1038.75 1493.11 1039.46 1493.11 1039.88 1493.54C1040.31 1493.82 1040.73 1494.25 1040.88 1494.67C1041.02 1495.1 1041.3 1495.81 1041.3 1496.38C1041.3 1497.08 1041.3 1497.79 1041.3 1498.5C1041.3 1499.21 1041.3 1500.06 1041.3 1500.63C1041.3 1501.34 1041.16 1501.77 1040.88 1502.19C1040.59 1502.62 1040.31 1503.04 1039.74 1503.33C1039.17 1503.61 1038.61 1503.75 1037.61 1503.75H1035.48V1493.11H1035.63Z" fill="#606060"/>
<path d="M1051.09 1518.5C1051.8 1519.21 1052.65 1519.64 1053.5 1519.92C1054.35 1520.21 1055.35 1520.35 1056.2 1520.35C1057.05 1520.35 1058.04 1520.21 1058.89 1519.92C1059.74 1519.64 1060.59 1519.07 1061.3 1518.5C1062.01 1517.94 1062.58 1517.09 1063.01 1516.23C1063.43 1515.24 1063.72 1514.11 1063.72 1512.83V1496.38C1063.72 1495.1 1063.43 1493.96 1063.01 1492.97C1062.58 1491.98 1062.01 1491.27 1061.3 1490.56C1060.59 1489.99 1059.74 1489.43 1058.89 1489.14C1058.04 1488.86 1057.05 1488.72 1056.2 1488.72C1055.35 1488.72 1054.35 1488.86 1053.5 1489.14C1052.65 1489.43 1051.8 1489.99 1051.09 1490.56C1050.38 1491.27 1049.81 1491.98 1049.39 1492.97C1048.96 1493.96 1048.68 1495.1 1048.68 1496.38V1512.83C1048.68 1514.11 1048.96 1515.24 1049.39 1516.23C1049.81 1517.23 1050.38 1517.94 1051.09 1518.5ZM1053.22 1496.38C1053.22 1495.24 1053.5 1494.53 1054.07 1493.96C1054.64 1493.4 1055.35 1493.25 1056.2 1493.25C1057.05 1493.25 1057.76 1493.54 1058.32 1493.96C1058.89 1494.39 1059.18 1495.24 1059.18 1496.38V1512.83C1059.18 1513.97 1058.89 1514.67 1058.32 1515.24C1057.76 1515.81 1057.05 1515.95 1056.2 1515.95C1055.35 1515.95 1054.64 1515.67 1054.07 1515.24C1053.5 1514.67 1053.22 1513.97 1053.22 1512.83V1496.38Z" fill="#606060"/>
<path d="M1081.02 1515.67H1072.09V1489H1067.69V1520.21H1081.02V1515.67Z" fill="#606060"/>
<path d="M1087.69 1513.54H1093.79L1095.07 1520.21H1099.61L1092.66 1489H1088.97L1082.02 1520.21H1086.56L1087.83 1513.54H1087.69ZM1090.67 1497.94L1092.8 1509.28H1088.26L1090.39 1497.94H1090.67Z" fill="#606060"/>
<path d="M1106.13 1501.34L1113.09 1520.21H1117.2V1489H1112.8V1507.72H1112.66L1105.99 1489H1101.59V1520.21H1106.13V1501.34Z" fill="#606060"/>
<path d="M1133.66 1518.08C1135.07 1516.66 1135.78 1514.53 1135.78 1511.55V1496.94C1135.78 1494.39 1135.07 1492.4 1133.8 1490.99C1132.52 1489.57 1130.53 1488.86 1127.98 1488.86H1121.31V1520.06H1127.56C1130.25 1520.06 1132.24 1519.36 1133.66 1517.94V1518.08ZM1125.71 1493.11H1127.84C1129.12 1493.11 1130.11 1493.4 1130.53 1494.11C1131.1 1494.82 1131.24 1495.67 1131.24 1496.94V1511.98C1131.24 1513.26 1130.96 1514.25 1130.39 1514.96C1129.83 1515.53 1128.97 1515.95 1127.7 1515.95H1125.57V1493.11H1125.71Z" fill="#606060"/>
<path d="M1373.98 984.155V1015.5H1387.46V1010.97H1378.52V984.155H1373.98Z" fill="#606060"/>
<path d="M1401.5 1015.5H1406.04L1399.09 984.297H1395.4L1388.45 1015.5H1392.99L1394.27 1008.84H1400.37L1401.64 1015.5H1401.5ZM1394.83 1004.58L1396.96 993.234L1399.09 1004.58H1394.55H1394.83Z" fill="#606060"/>
<path d="M1403.49 988.411H1408.74V1015.5H1413.13V988.411H1418.38V984.155H1403.49V988.411Z" fill="#606060"/>
<path d="M1427.18 1006H1427.04L1423.49 984.155H1418.81L1425.19 1015.5H1429.16L1435.55 984.155H1430.73L1427.18 1006Z" fill="#606060"/>
<path d="M1442.93 984.155H1438.39V1015.36H1442.93V984.155Z" fill="#606060"/>
<path d="M1445.2 1015.5H1449.74L1451.01 1008.84H1457.11L1458.39 1015.5H1462.93L1455.98 984.297H1452.29L1445.34 1015.5H1445.2ZM1453.99 993.234L1456.12 1004.58H1451.58L1453.71 993.234H1453.99Z" fill="#606060"/>
<path d="M1342.48 853.228H1355.82V848.83H1346.88V839.61H1354.68V835.355H1346.88V826.276H1355.82V822.021H1342.48V853.228Z" fill="#606060"/>
<path d="M1371.57 850.958C1372.13 850.107 1372.56 849.256 1372.84 848.121C1373.13 846.986 1373.27 845.71 1373.27 844.433C1373.27 843.156 1373.27 842.305 1373.13 841.312C1373.13 840.461 1372.84 839.61 1372.42 838.901C1372.13 838.192 1371.57 837.624 1371 837.057C1370.43 836.489 1369.58 836.064 1368.59 835.78L1365.18 834.362C1364.62 834.078 1364.19 833.936 1363.76 833.653C1363.34 833.369 1363.2 833.085 1363.05 832.801C1362.91 832.518 1362.77 832.092 1362.77 831.667C1362.77 831.241 1362.77 830.816 1362.77 830.106C1362.77 829.397 1362.77 829.113 1362.77 828.546C1362.77 828.12 1363.05 827.695 1363.2 827.269C1363.48 826.986 1363.76 826.56 1364.19 826.418C1364.62 826.134 1365.04 826.134 1365.75 826.134C1366.89 826.134 1367.74 826.56 1368.16 827.269C1368.59 827.979 1368.87 828.971 1368.87 829.964V830.957H1373.41V828.83C1373.41 826.986 1372.7 825.425 1371.42 824.007C1370.72 823.297 1370.01 822.73 1369.01 822.446C1368.02 822.021 1367.03 821.879 1365.89 821.879C1364.76 821.879 1363.48 822.163 1362.49 822.588C1361.49 823.014 1360.78 823.581 1360.08 824.432C1359.37 825.142 1358.94 826.134 1358.66 827.127C1358.37 828.12 1358.23 829.255 1358.23 830.532C1358.23 832.518 1358.51 834.078 1359.22 835.497C1359.93 836.773 1361.21 837.908 1363.05 838.617L1366.32 839.894C1366.89 840.178 1367.31 840.319 1367.59 840.603C1367.88 840.745 1368.16 841.029 1368.45 841.454C1368.59 841.738 1368.73 842.163 1368.73 842.731C1368.73 843.298 1368.73 843.866 1368.73 844.717C1368.73 845.568 1368.73 845.993 1368.73 846.561C1368.73 847.128 1368.59 847.554 1368.3 847.979C1368.02 848.405 1367.74 848.689 1367.31 848.972C1366.89 849.256 1366.32 849.256 1365.47 849.256C1364.33 849.256 1363.48 848.972 1363.05 848.263C1362.63 847.554 1362.35 846.845 1362.35 845.993V844.575H1357.81V846.277C1357.81 847.27 1357.95 848.263 1358.37 849.256C1358.8 850.107 1359.37 850.958 1359.93 851.667C1360.64 852.377 1361.35 852.802 1362.35 853.228C1363.34 853.653 1364.33 853.795 1365.32 853.795C1366.32 853.795 1368.02 853.512 1369.01 853.086C1370.01 852.66 1370.86 851.951 1371.42 851.1L1371.57 850.958Z" fill="#606060"/>
<path d="M1389.16 822.021H1374.26V826.276H1379.51V853.228H1383.91V826.276H1389.16V822.021Z" fill="#606060"/>
<path d="M1390.29 829.397V845.852C1390.29 847.128 1390.58 848.263 1391 849.256C1391.43 850.249 1392 850.958 1392.7 851.526C1393.41 852.235 1394.27 852.66 1395.12 852.944C1395.97 853.228 1396.96 853.37 1397.81 853.37C1398.66 853.37 1399.66 853.228 1400.51 852.944C1401.36 852.66 1402.21 852.093 1402.92 851.526C1403.63 850.958 1404.2 850.107 1404.62 849.256C1405.05 848.263 1405.33 847.128 1405.33 845.852V829.397C1405.33 828.12 1405.05 826.986 1404.62 825.993C1404.2 825 1403.63 824.29 1402.92 823.581C1402.21 823.014 1401.36 822.446 1400.51 822.163C1399.66 821.879 1398.66 821.737 1397.81 821.737C1396.96 821.737 1395.97 821.879 1395.12 822.163C1394.27 822.446 1393.41 823.014 1392.7 823.581C1392 824.29 1391.43 825 1391 825.993C1390.58 826.986 1390.29 828.12 1390.29 829.397ZM1394.83 829.397C1394.83 828.262 1395.12 827.553 1395.68 826.986C1396.25 826.418 1396.96 826.276 1397.81 826.276C1398.66 826.276 1399.37 826.56 1399.94 826.986C1400.51 827.553 1400.79 828.262 1400.79 829.397V845.852C1400.79 846.986 1400.51 847.696 1399.94 848.263C1399.37 848.83 1398.66 848.972 1397.81 848.972C1396.96 848.972 1396.25 848.689 1395.68 848.263C1395.12 847.696 1394.83 846.986 1394.83 845.852V829.397Z" fill="#606060"/>
<path d="M1409.16 853.228H1413.56V834.504H1413.7L1420.51 853.228H1424.77V822.021H1420.23V840.887L1413.42 822.021H1409.16V853.228Z" fill="#606060"/>
<path d="M1433.42 822.021H1428.88V853.228H1433.42V822.021Z" fill="#606060"/>
<path d="M1441.51 846.561H1447.61L1448.88 853.228H1453.42L1446.47 822.021H1442.78L1435.83 853.228H1440.37L1441.65 846.561H1441.51ZM1444.49 830.957L1446.61 842.305H1442.07L1444.2 830.957H1444.49Z" fill="#606060"/>
<path d="M1302.19 451.792H1309.85V447.537H1302.19V438.033H1310.99V433.777H1297.65V465.126H1302.19V451.792Z" fill="#606060"/>
<path d="M1318.65 433.777H1314.11V464.984H1318.65V433.777Z" fill="#606060"/>
<path d="M1327.16 446.26H1327.3L1334.11 465.126H1338.37V433.777H1333.83V452.643L1327.02 433.777H1322.76V465.126H1327.16V446.26Z" fill="#606060"/>
<path d="M1355.82 460.587H1346.88V433.777H1342.34V465.126H1355.82V460.587Z" fill="#606060"/>
<path d="M1362.49 458.317H1368.59L1369.86 464.984H1374.4L1367.45 433.777H1363.76L1356.81 464.984H1361.35L1362.63 458.317H1362.49ZM1365.47 442.856L1367.59 454.204H1363.05L1365.18 442.856H1365.47Z" fill="#606060"/>
<path d="M1380.79 446.26H1380.93L1387.74 465.126H1392V433.777H1387.46V452.643L1380.65 433.777H1376.39V465.126H1380.79V446.26Z" fill="#606060"/>
<path d="M1408.45 462.998C1409.87 461.58 1410.58 459.452 1410.58 456.473V441.863C1410.58 439.31 1409.87 437.324 1408.59 435.905C1407.32 434.487 1405.33 433.777 1402.78 433.777H1396.11V464.984H1402.35C1405.05 464.984 1407.03 464.275 1408.45 462.857V462.998ZM1400.51 438.033H1402.64C1403.91 438.033 1404.91 438.317 1405.33 439.026C1405.76 439.735 1406.04 440.586 1406.04 441.863V456.899C1406.04 458.176 1405.76 459.169 1405.19 459.878C1404.62 460.445 1403.77 460.871 1402.49 460.871H1400.37V438.033H1400.51Z" fill="#606060"/>
<path d="M1817.6 843.582H1820.29L1824.41 856.916H1829.09L1824.26 842.589C1825.68 841.738 1826.68 840.745 1827.24 839.468C1827.81 838.192 1828.09 836.631 1828.09 834.787C1828.09 828.688 1825.4 825.567 1820.15 825.567H1812.91V856.774H1817.45V843.44L1817.6 843.582ZM1817.6 829.964H1819.87C1821.43 829.964 1822.42 830.39 1822.99 831.241C1823.27 831.667 1823.41 832.234 1823.55 832.801C1823.55 833.369 1823.55 834.078 1823.55 834.929C1823.55 835.78 1823.55 836.348 1823.55 837.057C1823.55 837.624 1823.27 838.192 1823.13 838.617C1822.84 839.043 1822.56 839.327 1821.99 839.61C1821.57 839.894 1820.86 839.894 1820.15 839.894H1817.6V830.106V829.964Z" fill="#606060"/>
<path d="M1845.68 852.802C1846.11 851.951 1846.25 850.958 1846.25 849.965V825.709H1841.71V849.54C1841.71 850.675 1841.43 851.526 1840.86 851.951C1840.29 852.519 1839.73 852.802 1838.88 852.802C1838.02 852.802 1837.46 852.519 1836.89 851.951C1836.32 851.384 1836.04 850.675 1836.04 849.54V825.709H1831.5V849.965C1831.5 850.958 1831.64 851.951 1832.07 852.802C1832.49 853.653 1832.92 854.504 1833.63 855.072C1834.34 855.781 1835.04 856.207 1835.9 856.632C1836.75 857.058 1837.74 857.2 1838.73 857.2C1839.73 857.2 1840.72 857.058 1841.57 856.632C1842.42 856.207 1843.27 855.781 1843.84 855.072C1844.55 854.363 1844.98 853.653 1845.4 852.802H1845.68Z" fill="#606060"/>
<path d="M1854.2 856.632C1855.19 857.058 1856.18 857.2 1857.18 857.2C1858.17 857.2 1859.87 856.916 1860.86 856.49C1861.86 856.065 1862.71 855.356 1863.28 854.504C1863.84 853.653 1864.27 852.802 1864.55 851.667C1864.84 850.533 1864.98 849.256 1864.98 847.979C1864.98 846.703 1864.98 845.852 1864.84 844.859C1864.84 844.008 1864.55 843.156 1864.13 842.447C1863.84 841.738 1863.28 841.171 1862.71 840.603C1862.14 840.036 1861.29 839.61 1860.3 839.327L1856.89 837.908C1856.33 837.624 1855.9 837.482 1855.47 837.199C1855.05 836.915 1854.91 836.631 1854.76 836.348C1854.62 836.064 1854.48 835.638 1854.48 835.213C1854.48 834.787 1854.48 834.362 1854.48 833.653C1854.48 832.943 1854.48 832.66 1854.48 832.092C1854.48 831.667 1854.76 831.241 1854.91 830.816C1855.19 830.532 1855.47 830.106 1855.9 829.964C1856.33 829.681 1856.75 829.681 1857.46 829.681C1858.6 829.681 1859.45 830.106 1859.87 830.816C1860.3 831.525 1860.58 832.518 1860.58 833.511V834.504H1865.12V832.376C1865.12 830.532 1864.41 828.971 1863.13 827.553C1862.43 826.844 1861.72 826.276 1860.72 825.993C1859.73 825.567 1858.74 825.425 1857.6 825.425C1856.47 825.425 1855.19 825.709 1854.2 826.134C1853.2 826.56 1852.49 827.127 1851.79 827.979C1851.08 828.688 1850.65 829.681 1850.37 830.674C1850.08 831.667 1849.94 832.801 1849.94 834.078C1849.94 836.064 1850.22 837.624 1850.93 839.043C1851.64 840.319 1852.92 841.454 1854.76 842.164L1858.03 843.44C1858.6 843.724 1859.02 843.866 1859.3 844.149C1859.59 844.291 1859.87 844.575 1860.16 845.001C1860.3 845.284 1860.44 845.71 1860.44 846.277C1860.44 846.845 1860.44 847.412 1860.44 848.263C1860.44 849.114 1860.44 849.54 1860.44 850.107C1860.44 850.674 1860.3 851.1 1860.01 851.526C1859.73 851.951 1859.45 852.235 1859.02 852.519C1858.6 852.802 1858.03 852.802 1857.18 852.802C1856.04 852.802 1855.19 852.519 1854.76 851.809C1854.34 851.1 1854.06 850.391 1854.06 849.54V848.121H1849.52V849.823C1849.52 850.816 1849.66 851.809 1850.08 852.802C1850.51 853.653 1851.08 854.504 1851.64 855.214C1852.35 855.923 1853.06 856.348 1854.06 856.774L1854.2 856.632Z" fill="#606060"/>
<path d="M1875.05 857.2C1876.47 857.2 1877.75 856.916 1878.74 856.49C1879.73 856.065 1880.58 855.356 1881.15 854.504C1881.72 853.653 1882.14 852.802 1882.43 851.667C1882.71 850.533 1882.85 849.256 1882.85 847.979C1882.85 846.703 1882.85 845.852 1882.71 844.859C1882.71 844.008 1882.43 843.156 1882 842.447C1881.72 841.738 1881.15 841.171 1880.58 840.603C1880.02 840.036 1879.17 839.61 1878.17 839.327L1874.77 837.908C1874.2 837.624 1873.77 837.482 1873.35 837.199C1872.92 836.915 1872.78 836.631 1872.64 836.348C1872.5 836.064 1872.36 835.638 1872.36 835.213C1872.36 834.787 1872.36 834.362 1872.36 833.653C1872.36 832.943 1872.36 832.66 1872.36 832.092C1872.36 831.667 1872.64 831.241 1872.78 830.816C1873.07 830.532 1873.35 830.106 1873.77 829.964C1874.2 829.681 1874.63 829.681 1875.34 829.681C1876.47 829.681 1877.32 830.106 1877.75 830.816C1878.17 831.525 1878.46 832.518 1878.46 833.511V834.504H1883V832.376C1883 830.532 1882.29 828.971 1881.01 827.553C1880.3 826.844 1879.59 826.276 1878.6 825.993C1877.6 825.567 1876.61 825.425 1875.48 825.425C1874.34 825.425 1873.07 825.709 1872.07 826.134C1871.08 826.56 1870.37 827.127 1869.66 827.979C1868.95 828.688 1868.53 829.681 1868.24 830.674C1867.96 831.667 1867.82 832.801 1867.82 834.078C1867.82 836.064 1868.1 837.624 1868.81 839.043C1869.52 840.319 1870.8 841.454 1872.64 842.164L1875.9 843.44C1876.47 843.724 1876.9 843.866 1877.18 844.149C1877.46 844.291 1877.75 844.575 1878.03 845.001C1878.17 845.284 1878.31 845.71 1878.31 846.277C1878.31 846.845 1878.31 847.412 1878.31 848.263C1878.31 849.114 1878.31 849.54 1878.31 850.107C1878.31 850.674 1878.17 851.1 1877.89 851.526C1877.6 851.951 1877.32 852.235 1876.9 852.519C1876.47 852.802 1875.9 852.802 1875.05 852.802C1873.92 852.802 1873.07 852.519 1872.64 851.809C1872.21 851.1 1871.93 850.391 1871.93 849.54V848.121H1867.39V849.823C1867.39 850.816 1867.53 851.809 1867.96 852.802C1868.38 853.653 1868.95 854.504 1869.52 855.214C1870.23 855.923 1870.94 856.348 1871.93 856.774C1872.92 857.2 1873.92 857.341 1874.91 857.341L1875.05 857.2Z" fill="#606060"/>
<path d="M1890.8 825.709H1886.26V856.916H1890.8V825.709Z" fill="#606060"/>
<path d="M1900.02 825.709L1893.07 856.916H1897.61L1898.88 850.249H1904.99L1906.26 856.916H1910.8L1903.85 825.709H1900.16H1900.02ZM1899.74 845.993L1901.86 834.645L1903.99 845.993H1899.45H1899.74Z" fill="#606060"/>
<path d="M1550.32 1334.81C1551.6 1333.39 1552.3 1331.26 1552.3 1328.43V1326.72C1552.3 1325.02 1552.02 1323.74 1551.59 1322.75C1551.03 1321.76 1550.32 1321.05 1549.33 1320.62C1550.32 1320.06 1551.17 1319.35 1551.59 1318.5C1551.88 1318.07 1552.02 1317.5 1552.16 1316.94C1552.16 1316.37 1552.3 1315.66 1552.3 1314.81V1313.67C1552.3 1312.68 1552.3 1311.69 1551.88 1310.69C1551.6 1309.7 1551.17 1308.85 1550.46 1308.14C1549.75 1307.43 1549.04 1306.86 1548.05 1306.44C1547.06 1306.01 1545.78 1305.73 1544.36 1305.73H1537.83V1336.94H1543.93C1546.91 1336.94 1549.04 1336.23 1550.32 1334.81ZM1542.23 1309.98H1544.08C1545.64 1309.98 1546.63 1310.27 1547.2 1310.98C1547.76 1311.69 1548.05 1312.68 1548.05 1314.1C1548.05 1315.52 1547.76 1316.65 1547.34 1317.36C1546.91 1318.07 1545.78 1318.5 1544.36 1318.5H1542.37V1309.84L1542.23 1309.98ZM1542.23 1322.47H1544.22C1545.07 1322.47 1545.64 1322.47 1546.2 1322.75C1546.77 1322.89 1547.06 1323.18 1547.34 1323.6C1547.62 1324.03 1547.76 1324.45 1547.91 1325.16C1547.91 1325.73 1547.91 1326.44 1547.91 1327.29C1547.91 1328.14 1547.91 1328.71 1547.91 1329.42C1547.91 1330.13 1547.62 1330.55 1547.48 1331.12C1547.34 1331.69 1546.77 1331.97 1546.35 1332.26C1545.78 1332.54 1545.07 1332.68 1544.22 1332.68H1542.23V1322.61V1322.47Z" fill="#606060"/>
<path d="M1569.9 1332.54H1560.96V1323.32H1568.76V1319.06H1560.96V1309.98H1569.9V1305.73H1556.56V1336.94H1569.9V1332.54Z" fill="#606060"/>
<path d="M1586.07 1332.54H1577.27V1305.73H1572.73V1336.94H1586.07V1332.54Z" fill="#606060"/>
<path d="M1597.7 1305.73H1594.01L1587.06 1336.94H1591.6L1592.88 1330.27H1598.98L1600.26 1336.94H1604.8L1597.84 1305.73H1597.7ZM1593.59 1326.01L1595.72 1314.67L1597.84 1326.01H1593.3H1593.59Z" fill="#606060"/>
<path d="M1621.11 1319.63C1621.68 1318.35 1621.96 1316.79 1621.96 1314.95C1621.96 1308.85 1619.27 1305.73 1614.02 1305.73H1606.78V1336.94H1611.32V1323.6H1614.02L1618.13 1336.94H1622.81L1617.99 1322.61C1619.41 1321.76 1620.4 1320.77 1620.97 1319.49L1621.11 1319.63ZM1617.42 1316.94C1617.42 1317.5 1617.14 1318.07 1617 1318.5C1616.71 1318.92 1616.43 1319.21 1615.86 1319.49C1615.44 1319.77 1614.73 1319.77 1614.02 1319.77H1611.46V1309.98H1613.73C1615.29 1309.98 1616.29 1310.41 1616.85 1311.26C1617.14 1311.69 1617.28 1312.25 1617.42 1312.82C1617.42 1313.39 1617.42 1314.1 1617.42 1314.95C1617.42 1315.8 1617.42 1316.37 1617.42 1317.08V1316.94Z" fill="#606060"/>
<path d="M1635.58 1329.56C1635.58 1330.69 1635.3 1331.55 1634.73 1331.97C1634.16 1332.54 1633.59 1332.82 1632.74 1332.82C1631.89 1332.82 1631.32 1332.54 1630.76 1331.97C1630.19 1331.4 1629.91 1330.69 1629.91 1329.56V1305.73H1625.37V1329.99C1625.37 1330.98 1625.51 1331.97 1625.93 1332.82C1626.36 1333.67 1626.78 1334.52 1627.49 1335.09C1628.2 1335.8 1628.91 1336.23 1629.76 1336.65C1630.62 1337.08 1631.61 1337.22 1632.6 1337.22C1633.59 1337.22 1634.59 1337.08 1635.44 1336.65C1636.29 1336.23 1637.14 1335.8 1637.71 1335.09C1638.42 1334.38 1638.84 1333.67 1639.27 1332.82C1639.69 1331.97 1639.84 1330.98 1639.84 1329.99V1305.73H1635.3V1329.56H1635.58Z" fill="#606060"/>
<path d="M1654.31 1306.01C1653.31 1305.59 1652.32 1305.45 1651.19 1305.45C1650.05 1305.45 1648.77 1305.73 1647.78 1306.15C1646.79 1306.58 1646.08 1307.15 1645.37 1308C1644.66 1308.71 1644.23 1309.7 1643.95 1310.69C1643.67 1311.69 1643.53 1312.82 1643.53 1314.1C1643.53 1316.08 1643.81 1317.64 1644.52 1319.06C1645.23 1320.34 1646.5 1321.47 1648.35 1322.18L1651.61 1323.46C1652.18 1323.74 1652.6 1323.89 1652.89 1324.17C1653.17 1324.31 1653.46 1324.6 1653.74 1325.02C1653.88 1325.3 1654.02 1325.73 1654.02 1326.3C1654.02 1326.86 1654.02 1327.43 1654.02 1328.28C1654.02 1329.13 1654.02 1329.56 1654.02 1330.13C1654.02 1330.69 1653.88 1331.12 1653.6 1331.55C1653.31 1331.97 1653.03 1332.26 1652.6 1332.54C1652.18 1332.82 1651.61 1332.82 1650.76 1332.82C1649.63 1332.82 1648.77 1332.54 1648.35 1331.83C1647.92 1331.12 1647.64 1330.41 1647.64 1329.56V1328.14H1643.1V1329.84C1643.1 1330.84 1643.24 1331.83 1643.67 1332.82C1644.09 1333.67 1644.66 1334.52 1645.23 1335.23C1645.94 1335.94 1646.65 1336.37 1647.64 1336.79C1648.63 1337.22 1649.63 1337.36 1650.62 1337.36C1651.61 1337.36 1653.31 1337.08 1654.31 1336.65C1655.3 1336.23 1656.15 1335.52 1656.72 1334.67C1657.29 1333.82 1657.71 1332.96 1658 1331.83C1658.28 1330.69 1658.42 1329.42 1658.42 1328.14C1658.42 1326.86 1658.42 1326.01 1658.28 1325.02C1658.28 1324.17 1658 1323.32 1657.57 1322.61C1657.29 1321.9 1656.72 1321.33 1656.15 1320.77C1655.58 1320.2 1654.73 1319.77 1653.74 1319.49L1650.33 1318.07C1649.77 1317.79 1649.34 1317.64 1648.92 1317.36C1648.49 1317.08 1648.35 1316.79 1648.21 1316.51C1648.07 1316.23 1647.92 1315.8 1647.92 1315.38C1647.92 1314.95 1647.92 1314.52 1647.92 1313.81C1647.92 1313.11 1647.92 1312.82 1647.92 1312.25C1647.92 1311.83 1648.21 1311.4 1648.35 1310.98C1648.63 1310.69 1648.92 1310.27 1649.34 1310.13C1649.77 1309.84 1650.19 1309.84 1650.9 1309.84C1652.04 1309.84 1652.89 1310.27 1653.31 1310.98C1653.74 1311.69 1654.02 1312.68 1654.02 1313.67V1314.67H1658.56V1312.54C1658.56 1310.69 1657.85 1309.13 1656.58 1307.72C1655.87 1307.01 1655.16 1306.44 1654.17 1306.15L1654.31 1306.01Z" fill="#606060"/>
<path d="M1770.5 1646.31C1771.2 1647.02 1771.91 1647.45 1772.77 1647.87C1773.62 1648.3 1774.61 1648.44 1775.6 1648.44C1776.6 1648.44 1777.59 1648.3 1778.44 1647.87C1779.29 1647.45 1780.14 1647.02 1780.71 1646.31C1781.42 1645.6 1781.85 1644.89 1782.27 1644.04C1782.7 1643.19 1782.84 1642.2 1782.84 1641.2V1616.95H1778.3V1640.78C1778.3 1641.91 1778.01 1642.76 1777.45 1643.19C1776.88 1643.76 1776.31 1644.04 1775.46 1644.04C1774.61 1644.04 1774.04 1643.76 1773.47 1643.19C1772.91 1642.62 1772.62 1641.91 1772.62 1640.78V1616.95H1768.08V1641.2C1768.08 1642.2 1768.23 1643.19 1768.65 1644.04C1769.08 1644.89 1769.5 1645.74 1770.21 1646.31H1770.5Z" fill="#606060"/>
<path d="M1791.63 1638.79L1794.05 1634.25L1799.15 1648.16H1803.83L1796.6 1629.43L1802.7 1616.95H1798.3L1791.63 1631.13V1616.95H1787.09V1648.16H1791.63V1638.79Z" fill="#606060"/>
<path d="M1820.15 1630.85C1820.72 1629.57 1821 1628.01 1821 1626.17C1821 1620.07 1818.3 1616.95 1813.06 1616.95H1805.82V1648.16H1810.36V1634.82H1813.06L1817.17 1648.16H1821.85L1817.03 1633.83C1818.45 1632.98 1819.44 1631.98 1820.01 1630.71L1820.15 1630.85ZM1816.32 1628.15C1816.32 1628.72 1816.03 1629.29 1815.89 1629.71C1815.61 1630.14 1815.33 1630.42 1814.76 1630.71C1814.33 1630.99 1813.62 1630.99 1812.91 1630.99H1810.36V1621.2H1812.63C1814.19 1621.2 1815.18 1621.63 1815.75 1622.48C1816.03 1622.91 1816.18 1623.47 1816.32 1624.04C1816.32 1624.61 1816.32 1625.32 1816.32 1626.17C1816.32 1627.02 1816.32 1627.59 1816.32 1628.3V1628.15Z" fill="#606060"/>
<path d="M1829.51 1616.95L1822.56 1648.16H1827.1L1828.38 1641.49H1834.48L1835.75 1648.16H1840.29L1833.34 1616.95H1829.65H1829.51ZM1829.09 1637.23L1831.21 1625.88L1833.34 1637.23H1828.8H1829.09Z" fill="#606060"/>
<path d="M1847.1 1616.95H1842.56V1648.16H1847.1V1616.95Z" fill="#606060"/>
<path d="M1862.28 1635.81L1855.47 1616.95H1851.22V1648.16H1855.62V1629.43H1855.76L1862.57 1648.16H1866.82V1616.95H1862.28V1635.81Z" fill="#606060"/>
<path d="M1870.94 1648.16H1884.27V1643.76H1875.34V1634.54H1883.14V1630.28H1875.34V1621.06H1884.27V1616.95H1870.94V1648.16Z" fill="#606060"/>
<path d="M1728.36 1912.42H1728.22L1723.25 1898.09H1719.57V1925.19H1723.4V1908.73H1723.54L1727.23 1920.37H1729.21L1733.04 1908.73H1733.18V1925.19H1737.02V1898.09H1733.18L1728.36 1912.42Z" fill="#606060"/>
<path d="M1749.07 1899.51C1748.51 1898.95 1747.8 1898.52 1746.95 1898.24C1746.24 1897.95 1745.39 1897.81 1744.68 1897.81C1743.97 1897.81 1743.12 1897.81 1742.41 1898.24C1741.7 1898.52 1740.99 1898.95 1740.28 1899.51C1739.71 1900.08 1739.14 1900.79 1738.72 1901.64C1738.29 1902.49 1738.15 1903.49 1738.15 1904.48V1918.66C1738.15 1919.8 1738.29 1920.79 1738.72 1921.64C1739.14 1922.49 1739.57 1923.06 1740.28 1923.63C1740.85 1924.2 1741.56 1924.62 1742.41 1924.9C1743.12 1925.19 1743.97 1925.33 1744.68 1925.33C1745.39 1925.33 1746.24 1925.33 1746.95 1924.9C1747.66 1924.62 1748.36 1924.2 1749.07 1923.63C1749.64 1923.06 1750.21 1922.49 1750.49 1921.64C1750.78 1920.79 1751.06 1919.8 1751.06 1918.66V1904.48C1751.06 1903.34 1750.92 1902.49 1750.49 1901.64C1750.07 1900.79 1749.64 1900.08 1749.07 1899.51ZM1747.23 1918.8C1747.23 1919.8 1746.95 1920.37 1746.52 1920.93C1746.09 1921.5 1745.39 1921.64 1744.68 1921.64C1743.97 1921.64 1743.4 1921.36 1742.83 1920.93C1742.26 1920.51 1742.12 1919.8 1742.12 1918.8V1904.62C1742.12 1903.63 1742.41 1903.06 1742.83 1902.49C1743.4 1902.07 1743.97 1901.78 1744.68 1901.78C1745.39 1901.78 1745.95 1902.07 1746.52 1902.49C1747.09 1902.92 1747.23 1903.63 1747.23 1904.62V1918.8Z" fill="#606060"/>
<path d="M1756.03 1898.09H1752.2V1925.19H1763.69V1921.22H1756.03V1898.09Z" fill="#606060"/>
<path d="M1769.64 1898.09H1763.97V1925.05H1769.36C1771.63 1925.05 1773.47 1924.48 1774.61 1923.2C1775.89 1922.07 1776.45 1920.08 1776.45 1917.67V1905.05C1776.45 1902.78 1775.89 1901.07 1774.75 1899.94C1773.62 1898.66 1771.91 1898.09 1769.64 1898.09ZM1772.62 1918.1C1772.62 1919.23 1772.34 1920.08 1771.91 1920.65C1771.49 1921.22 1770.64 1921.5 1769.64 1921.5H1767.8V1901.78H1769.64C1770.78 1901.78 1771.63 1902.07 1772.06 1902.63C1772.48 1903.2 1772.77 1904.05 1772.77 1905.05V1918.1H1772.62Z" fill="#606060"/>
<path d="M1788.51 1899.51C1787.95 1898.95 1787.24 1898.52 1786.38 1898.24C1785.68 1897.95 1784.82 1897.81 1784.11 1897.81C1783.41 1897.81 1782.55 1897.81 1781.84 1898.24C1781.14 1898.52 1780.43 1898.95 1779.72 1899.51C1779.15 1900.08 1778.58 1900.79 1778.16 1901.64C1777.73 1902.49 1777.59 1903.49 1777.59 1904.48V1918.66C1777.59 1919.8 1777.73 1920.79 1778.16 1921.64C1778.58 1922.49 1779.01 1923.06 1779.72 1923.63C1780.28 1924.2 1780.99 1924.62 1781.84 1924.9C1782.55 1925.19 1783.41 1925.33 1784.11 1925.33C1784.82 1925.33 1785.68 1925.33 1786.38 1924.9C1787.09 1924.62 1787.8 1924.2 1788.51 1923.63C1789.08 1923.06 1789.65 1922.49 1789.93 1921.64C1790.21 1920.79 1790.5 1919.8 1790.5 1918.66V1904.48C1790.5 1903.34 1790.36 1902.49 1789.93 1901.64C1789.51 1900.79 1789.08 1900.08 1788.51 1899.51ZM1786.67 1918.8C1786.67 1919.8 1786.38 1920.37 1785.96 1920.93C1785.53 1921.5 1784.82 1921.64 1784.11 1921.64C1783.41 1921.64 1782.84 1921.36 1782.27 1920.93C1781.7 1920.51 1781.56 1919.8 1781.56 1918.8V1904.62C1781.56 1903.63 1781.84 1903.06 1782.27 1902.49C1782.84 1902.07 1783.41 1901.78 1784.11 1901.78C1784.82 1901.78 1785.39 1902.07 1785.96 1902.49C1786.53 1902.92 1786.67 1903.63 1786.67 1904.62V1918.8Z" fill="#606060"/>
<path d="M1800 1898.09L1796.88 1916.96L1793.76 1898.09H1789.65L1795.18 1925.19H1798.59L1804.12 1898.09H1800Z" fill="#606060"/>
<path d="M1807.1 1898.09L1801.14 1925.05H1804.97L1806.1 1919.23H1811.35L1812.49 1925.05H1816.32L1810.36 1898.09H1807.1ZM1806.67 1915.68L1808.52 1905.9L1810.36 1915.68H1806.53H1806.67Z" fill="#606060"/>
<path d="M1454.84 2046.04C1455.41 2044.77 1455.69 2043.21 1455.69 2041.36C1455.69 2035.26 1453 2032.14 1447.75 2032.14H1440.51V2063.35H1445.05V2050.02H1447.75L1451.86 2063.35H1456.54L1451.72 2049.02C1453.14 2048.17 1454.13 2047.18 1454.7 2045.9L1454.84 2046.04ZM1451.15 2043.35C1451.15 2043.92 1450.87 2044.48 1450.73 2044.91C1450.44 2045.34 1450.16 2045.62 1449.59 2045.9C1449.17 2046.19 1448.46 2046.19 1447.75 2046.19H1445.2V2036.4H1447.47C1449.03 2036.4 1450.02 2036.82 1450.59 2037.68C1450.87 2038.1 1451.01 2038.67 1451.15 2039.24C1451.15 2039.8 1451.15 2040.51 1451.15 2041.36C1451.15 2042.21 1451.15 2042.78 1451.15 2043.49V2043.35Z" fill="#606060"/>
<path d="M1469.45 2033.85C1468.74 2033.28 1467.89 2032.71 1467.04 2032.43C1466.19 2032.14 1465.2 2032 1464.35 2032C1463.5 2032 1462.5 2032.14 1461.65 2032.43C1460.8 2032.71 1459.95 2033.28 1459.24 2033.85C1458.53 2034.55 1457.96 2035.26 1457.54 2036.26C1457.11 2037.25 1456.83 2038.38 1456.83 2039.66V2056.12C1456.83 2057.39 1457.11 2058.53 1457.54 2059.52C1457.96 2060.51 1458.53 2061.22 1459.24 2061.79C1459.95 2062.5 1460.8 2062.92 1461.65 2063.21C1462.5 2063.49 1463.5 2063.63 1464.35 2063.63C1465.2 2063.63 1466.19 2063.49 1467.04 2063.21C1467.89 2062.92 1468.74 2062.36 1469.45 2061.79C1470.16 2061.22 1470.73 2060.37 1471.16 2059.52C1471.58 2058.53 1471.87 2057.39 1471.87 2056.12V2039.66C1471.87 2038.38 1471.58 2037.25 1471.16 2036.26C1470.73 2035.26 1470.16 2034.55 1469.45 2033.85ZM1467.47 2056.12C1467.47 2057.25 1467.18 2057.96 1466.62 2058.53C1466.05 2059.09 1465.34 2059.24 1464.49 2059.24C1463.64 2059.24 1462.93 2058.95 1462.36 2058.53C1461.79 2057.96 1461.51 2057.25 1461.51 2056.12V2039.66C1461.51 2038.53 1461.79 2037.82 1462.36 2037.25C1462.93 2036.68 1463.64 2036.54 1464.49 2036.54C1465.34 2036.54 1466.05 2036.82 1466.62 2037.25C1467.18 2037.68 1467.47 2038.53 1467.47 2039.66V2056.12Z" fill="#606060"/>
<path d="M1507.05 2063.49H1515.85V2044.77L1522.65 2063.49H1526.91V2032.28H1522.37V2051.15L1515.56 2032.28H1511.31V2062.78L1504.5 2032.28H1500.81L1493.86 2063.49V2032.28H1489.46L1483.78 2048.88L1477.97 2032.28H1473.71V2063.49H1478.25V2044.48L1482.65 2057.96H1484.92L1489.32 2044.48V2063.49H1498.25L1499.53 2056.83H1505.63L1506.91 2063.49H1507.05ZM1500.38 2052.43L1502.51 2041.08L1504.64 2052.43H1500.1H1500.38Z" fill="#606060"/>
<path d="M1533.58 2032.14H1529.04V2063.35H1533.58V2032.14Z" fill="#606060"/>
<path d="M1540.53 2032.14L1533.58 2063.35H1538.12L1539.39 2056.68H1545.49L1546.77 2063.35H1551.31L1544.36 2032.14H1540.67H1540.53ZM1540.25 2052.43L1542.37 2041.08L1544.5 2052.43H1539.96H1540.25Z" fill="#606060"/>
<path d="M747.353 960.041C748.062 960.75 748.772 961.176 749.765 961.601C750.758 962.027 751.751 962.169 752.744 962.169C753.737 962.169 755.439 961.885 756.432 961.459C757.425 961.034 758.277 960.325 758.844 959.473C759.412 958.622 759.837 957.771 760.121 956.636C760.405 955.502 760.546 954.225 760.546 952.948C760.546 951.672 760.546 950.821 760.405 949.828C760.405 948.977 760.121 948.125 759.695 947.416C759.412 946.707 758.844 946.14 758.277 945.572C757.709 945.005 756.858 944.579 755.865 944.296L752.46 942.877C751.893 942.593 751.467 942.451 751.041 942.168C750.758 941.884 750.474 941.6 750.332 941.317C750.19 941.033 750.048 940.607 750.048 940.182C750.048 939.756 750.048 939.331 750.048 938.622C750.048 937.912 750.048 937.629 750.048 937.061C750.048 936.636 750.332 936.21 750.474 935.785C750.758 935.501 751.041 935.075 751.467 934.933C751.893 934.65 752.318 934.65 753.028 934.65C754.162 934.65 755.014 935.075 755.439 935.785C755.865 936.494 756.149 937.487 756.149 938.48V939.473H760.688V937.345C760.688 935.501 759.979 933.94 758.702 932.522C757.993 931.813 757.283 931.245 756.29 930.962C755.439 930.536 754.304 930.394 753.169 930.394C752.034 930.394 750.758 930.678 749.765 931.103C748.772 931.529 748.062 932.096 747.353 932.948C746.644 933.657 746.218 934.65 745.934 935.643C745.65 936.636 745.509 937.77 745.509 939.047C745.509 941.033 745.792 942.593 746.502 944.012C747.211 945.288 748.488 946.423 750.332 947.133L753.595 948.409C754.162 948.693 754.588 948.835 754.872 949.118C755.155 949.26 755.439 949.544 755.723 949.97C755.865 950.253 756.007 950.679 756.007 951.246C756.007 951.814 756.007 952.381 756.007 953.232C756.007 954.083 756.007 954.509 756.007 955.076C756.007 955.643 755.865 956.069 755.581 956.495C755.297 956.92 755.014 957.204 754.588 957.488C754.162 957.771 753.595 957.771 752.744 957.771C751.609 957.771 750.758 957.488 750.332 956.778C749.906 956.069 749.623 955.36 749.623 954.509V953.09H745.083V954.792C745.083 955.785 745.225 956.778 745.65 957.771C746.076 958.622 746.644 959.473 747.211 960.183L747.353 960.041Z" fill="#606060"/>
<path d="M771.328 961.885L774.591 941.6H774.733L778.138 961.885H782.394L787.075 930.678H782.252L780.124 950.962L776.435 930.678H773.031L769.484 950.537H769.342L767.214 930.678H762.391L767.072 961.885H771.328Z" fill="#606060"/>
<path d="M803.249 957.488H794.311V948.267H802.114V944.012H794.311V934.933H803.249V930.678H789.913V961.885H803.249V957.488Z" fill="#606060"/>
<path d="M818.428 959.899C819.847 958.481 820.556 956.353 820.556 953.374V938.763C820.556 936.21 819.847 934.224 818.57 932.806C817.293 931.387 815.307 930.678 812.754 930.678H806.086V961.885H812.328C815.023 961.885 817.01 961.176 818.428 959.757V959.899ZM810.626 934.933H812.754C814.03 934.933 815.024 935.217 815.449 935.926C816.017 936.636 816.158 937.487 816.158 938.763V953.799C816.158 955.076 815.875 956.069 815.307 956.778C814.74 957.488 813.889 957.771 812.612 957.771H810.484V934.933H810.626Z" fill="#606060"/>
<path d="M838.148 957.488H829.352V948.267H837.013V944.012H829.352V934.933H838.148V930.678H824.812V961.885H838.148V957.488Z" fill="#606060"/>
<path d="M845.384 943.161L852.335 961.885H856.449V930.678H852.051V949.544H851.909L845.242 930.678H840.844V961.885H845.384V943.161Z" fill="#606060"/>
<path d="M1290.84 1171.96H1281.91V1145.16H1277.51V1176.36H1290.84V1171.96Z" fill="#606060"/>
<path d="M1298.36 1145.16H1293.82V1176.36H1298.36V1145.16Z" fill="#606060"/>
<path d="M1310.14 1176.36V1149.41H1315.25V1145.16H1300.49V1149.41H1305.6V1176.36H1310.14Z" fill="#606060"/>
<path d="M1317.23 1145.16V1176.36H1321.77V1162.46H1327.3V1176.36H1331.7V1145.16H1327.3V1158.49H1321.77V1145.16H1317.23Z" fill="#606060"/>
<path d="M1335.96 1145.16V1169.41C1335.96 1170.4 1336.1 1171.4 1336.52 1172.25C1336.95 1173.1 1337.38 1173.95 1338.09 1174.52C1338.79 1175.23 1339.5 1175.65 1340.36 1176.08C1341.21 1176.5 1342.2 1176.65 1343.19 1176.65C1344.19 1176.65 1345.18 1176.5 1346.03 1176.08C1346.88 1175.65 1347.73 1175.23 1348.3 1174.52C1349.01 1173.81 1349.43 1173.1 1349.86 1172.25C1350.29 1171.4 1350.43 1170.4 1350.43 1169.41V1145.16H1345.89V1168.99C1345.89 1170.12 1345.6 1170.97 1345.04 1171.4C1344.47 1171.96 1343.9 1172.25 1343.05 1172.25C1342.2 1172.25 1341.63 1171.96 1341.06 1171.4C1340.5 1170.83 1340.21 1170.12 1340.21 1168.99V1145.16H1335.67H1335.96Z" fill="#606060"/>
<path d="M1359.08 1145.16L1352.13 1176.36H1356.67L1357.95 1169.7H1364.05L1365.32 1176.36H1369.86L1362.91 1145.16H1359.22H1359.08ZM1358.66 1165.44L1360.78 1154.09L1362.91 1165.44H1358.37H1358.66Z" fill="#606060"/>
<path d="M1376.25 1157.64H1376.39L1383.2 1176.36H1387.46V1145.16H1383.06V1164.02H1382.92L1376.11 1145.16H1371.85V1176.36H1376.25V1157.64Z" fill="#606060"/>
<path d="M1396.11 1145.16H1391.57V1176.36H1396.11V1145.16Z" fill="#606060"/>
<path d="M1405.47 1145.16L1398.52 1176.36H1403.06L1404.34 1169.7H1410.44L1411.72 1176.36H1416.25L1409.3 1145.16H1405.61H1405.47ZM1405.05 1165.44L1407.18 1154.09L1409.3 1165.44H1404.76H1405.05Z" fill="#606060"/>
<path d="M774.307 2074.98C774.591 2073.85 774.733 2072.57 774.733 2071.29C774.733 2070.02 774.733 2069.17 774.591 2068.17C774.591 2067.32 774.307 2066.47 773.882 2065.76C773.598 2065.05 773.031 2064.48 772.463 2063.92C771.896 2063.35 771.044 2062.92 770.051 2062.64L766.647 2061.22C766.079 2060.94 765.654 2060.8 765.228 2060.51C764.944 2060.23 764.66 2059.95 764.519 2059.66C764.377 2059.38 764.235 2058.95 764.235 2058.53C764.235 2058.1 764.235 2057.53 764.235 2056.97C764.235 2056.4 764.235 2055.97 764.235 2055.41C764.235 2054.84 764.519 2054.56 764.66 2054.13C764.944 2053.85 765.228 2053.42 765.654 2053.28C766.079 2053 766.505 2053 767.214 2053C768.349 2053 769.2 2053.42 769.626 2054.13C770.051 2054.84 770.335 2055.83 770.335 2056.83V2057.82H774.875V2055.69C774.875 2053.85 774.165 2052.29 772.889 2050.87C772.179 2050.16 771.47 2049.59 770.477 2049.31C769.484 2049.02 768.491 2048.74 767.356 2048.74C766.221 2048.74 764.944 2049.02 763.951 2049.45C762.958 2049.87 762.249 2050.44 761.539 2051.29C760.83 2052 760.404 2053 760.121 2053.99C759.837 2054.98 759.695 2056.12 759.695 2057.39C759.695 2059.38 759.979 2060.94 760.688 2062.36C761.398 2063.78 762.674 2064.77 764.519 2065.48L767.782 2066.75C768.349 2067.04 768.775 2067.18 769.058 2067.46C769.342 2067.75 769.626 2067.89 769.91 2068.31C770.051 2068.6 770.193 2069.02 770.193 2069.59C770.193 2070.16 770.193 2070.73 770.193 2071.58C770.193 2072.43 770.193 2072.85 770.193 2073.42C770.193 2073.99 770.051 2074.41 769.768 2074.84C769.484 2075.27 769.2 2075.55 768.775 2075.83C768.349 2076.12 767.781 2076.12 766.93 2076.12C765.795 2076.12 764.944 2075.83 764.519 2075.12C764.093 2074.41 763.809 2073.71 763.809 2072.85V2071.44H759.27V2073.14C759.27 2074.13 759.411 2075.12 759.837 2076.12C760.263 2076.97 760.83 2077.82 761.398 2078.53C762.107 2079.24 762.816 2079.66 763.809 2080.09C764.802 2080.51 765.795 2080.66 766.788 2080.66C767.782 2080.66 769.484 2080.37 770.477 2079.95C771.47 2079.52 772.321 2078.81 772.889 2077.96C773.456 2077.11 773.882 2076.26 774.166 2075.12L774.307 2074.98Z" fill="#606060"/>
<path d="M780.266 2049.02H775.868V2080.23H789.204V2075.69H780.266V2049.02Z" fill="#606060"/>
<path d="M802.255 2050.58C801.546 2050.02 800.695 2049.45 799.843 2049.17C798.992 2048.88 797.999 2048.74 797.148 2048.74C796.297 2048.74 795.304 2048.88 794.452 2049.17C793.601 2049.45 792.75 2050.02 792.041 2050.58C791.331 2051.29 790.764 2052 790.338 2053C789.913 2053.99 789.629 2055.12 789.629 2056.4V2072.85C789.629 2074.13 789.913 2075.27 790.338 2076.26C790.764 2077.25 791.331 2077.96 792.041 2078.53C792.75 2079.24 793.601 2079.66 794.452 2079.95C795.304 2080.23 796.297 2080.37 797.148 2080.37C797.999 2080.37 798.992 2080.23 799.843 2079.95C800.695 2079.66 801.546 2079.1 802.255 2078.53C802.964 2077.96 803.532 2077.11 803.957 2076.26C804.383 2075.27 804.667 2074.13 804.667 2072.85V2056.4C804.667 2055.12 804.383 2053.99 803.957 2053C803.532 2052 802.964 2051.29 802.255 2050.58ZM800.127 2072.85C800.127 2073.99 799.843 2074.7 799.276 2075.27C798.708 2075.83 797.999 2075.97 797.148 2075.97C796.297 2075.97 795.587 2075.69 795.02 2075.27C794.452 2074.7 794.169 2073.99 794.169 2072.85V2056.4C794.169 2055.26 794.452 2054.56 795.02 2053.99C795.587 2053.42 796.297 2053.28 797.148 2053.28C797.999 2053.28 798.708 2053.56 799.276 2053.99C799.843 2054.56 800.127 2055.26 800.127 2056.4V2072.85Z" fill="#606060"/>
<path d="M812.47 2070.73H812.328L808.781 2049.02H804.1L810.484 2080.23H814.456L820.84 2049.02H816.016L812.47 2070.73Z" fill="#606060"/>
<path d="M821.266 2080.23H834.601V2075.69H825.805V2066.61H833.466V2062.36H825.805V2053.14H834.601V2049.02H821.266V2080.23Z" fill="#606060"/>
<path d="M846.376 2067.75H846.235L839.425 2049.02H835.169V2080.23H839.709V2061.36L846.66 2080.23H850.774V2049.02H846.376V2067.75Z" fill="#606060"/>
<path d="M857.3 2049.02H852.76V2080.23H857.3V2049.02Z" fill="#606060"/>
<path d="M864.393 2049.02L857.441 2080.23H861.981L863.258 2073.56H869.358L870.635 2080.23H875.175L868.223 2049.02H864.535H864.393ZM863.967 2069.31L866.095 2057.96L868.223 2069.31H863.683H863.967Z" fill="#606060"/>
<path d="M757.143 1933.7H761.682L754.731 1902.49H751.042L744.091 1933.7H748.631L749.907 1927.03H756.008L757.284 1933.7H757.143ZM750.617 1922.78L752.745 1911.43L754.873 1922.78H750.333H750.617Z" fill="#606060"/>
<path d="M763.81 1902.49V1926.75C763.81 1927.74 763.952 1928.73 764.378 1929.59C764.803 1930.44 765.229 1931.29 765.938 1931.86C766.647 1932.56 767.357 1932.99 768.208 1933.42C769.059 1933.84 770.052 1933.98 771.045 1933.98C772.038 1933.98 773.031 1933.84 773.883 1933.42C774.734 1932.99 775.585 1932.56 776.152 1931.86C776.862 1931.15 777.287 1930.44 777.713 1929.59C778.139 1928.73 778.28 1927.74 778.28 1926.75V1902.49H773.741V1926.32C773.741 1927.46 773.457 1928.31 772.89 1928.73C772.322 1929.3 771.755 1929.59 770.903 1929.59C770.052 1929.59 769.485 1929.3 768.917 1928.73C768.35 1928.17 768.066 1927.46 768.066 1926.32V1902.49H763.526H763.81Z" fill="#606060"/>
<path d="M795.447 1931.43C796.014 1930.58 796.44 1929.73 796.723 1928.59C797.007 1927.46 797.149 1926.18 797.149 1924.9C797.149 1923.63 797.149 1922.78 797.007 1921.78C797.007 1920.93 796.723 1920.08 796.298 1919.37C796.014 1918.66 795.447 1918.1 794.879 1917.53C794.312 1916.96 793.46 1916.54 792.467 1916.25L789.063 1914.83C788.495 1914.55 788.07 1914.41 787.644 1914.12C787.36 1913.84 787.076 1913.56 786.935 1913.27C786.793 1912.99 786.651 1912.56 786.651 1912.14C786.651 1911.71 786.651 1911.15 786.651 1910.58C786.651 1910.01 786.651 1909.58 786.651 1909.02C786.651 1908.45 786.935 1908.17 787.076 1907.74C787.36 1907.46 787.644 1907.03 788.07 1906.89C788.495 1906.61 788.921 1906.61 789.63 1906.61C790.765 1906.61 791.616 1907.03 792.042 1907.74C792.467 1908.45 792.751 1909.44 792.751 1910.44V1911.43H797.291V1909.3C797.291 1907.46 796.582 1905.9 795.305 1904.48C794.595 1903.77 793.886 1903.2 792.893 1902.92C791.9 1902.63 790.907 1902.35 789.772 1902.35C788.637 1902.35 787.36 1902.63 786.367 1903.06C785.374 1903.49 784.665 1904.05 783.955 1904.9C783.246 1905.61 782.82 1906.61 782.537 1907.6C782.253 1908.59 782.111 1909.73 782.111 1911C782.111 1912.99 782.395 1914.55 783.104 1915.97C783.814 1917.39 785.09 1918.38 786.935 1919.09L790.198 1920.37C790.765 1920.65 791.191 1920.79 791.474 1921.07C791.758 1921.36 792.042 1921.5 792.326 1921.93C792.467 1922.21 792.609 1922.63 792.609 1923.2C792.609 1923.77 792.609 1924.34 792.609 1925.19C792.609 1926.04 792.609 1926.46 792.609 1927.03C792.609 1927.6 792.467 1928.03 792.184 1928.45C791.9 1928.88 791.616 1929.16 791.191 1929.44C790.765 1929.73 790.198 1929.73 789.346 1929.73C788.211 1929.73 787.36 1929.44 786.935 1928.73C786.509 1928.03 786.225 1927.32 786.225 1926.46V1925.05H781.686V1926.75C781.686 1927.74 781.827 1928.73 782.253 1929.73C782.679 1930.58 783.246 1931.43 783.814 1932.14C784.523 1932.85 785.232 1933.27 786.225 1933.7C787.218 1934.12 788.211 1934.27 789.204 1934.27C790.198 1934.27 791.9 1933.98 792.893 1933.56C793.886 1933.13 794.737 1932.42 795.305 1931.57L795.447 1931.43Z" fill="#606060"/>
<path d="M807.789 1933.7V1906.75H813.038V1902.49H798.142V1906.75H803.391V1933.7H807.789Z" fill="#606060"/>
<path d="M819.422 1920.37H822.117L826.231 1933.7H830.913L826.09 1919.37C827.508 1918.52 828.501 1917.53 829.069 1916.25C829.636 1914.98 829.92 1913.41 829.92 1911.57C829.92 1905.47 827.225 1902.35 821.975 1902.35H814.74V1933.56H819.28V1920.22L819.422 1920.37ZM819.422 1906.75H821.692C823.252 1906.75 824.245 1907.17 824.813 1908.02C825.097 1908.45 825.238 1909.02 825.38 1909.58C825.38 1910.15 825.38 1910.86 825.38 1911.71C825.38 1912.56 825.38 1913.13 825.38 1913.84C825.38 1914.41 825.097 1914.98 824.955 1915.4C824.671 1915.83 824.387 1916.11 823.82 1916.39C823.394 1916.68 822.685 1916.68 821.975 1916.68H819.422V1906.89V1906.75Z" fill="#606060"/>
<path d="M838.29 1902.49H833.75V1933.7H838.29V1902.49Z" fill="#606060"/>
<path d="M858.293 1933.7L851.341 1902.49H847.653L840.701 1933.7H845.241L846.518 1927.03H852.618L853.895 1933.7H858.435H858.293ZM847.227 1922.78L849.355 1911.43L851.483 1922.78H846.943H847.227Z" fill="#606060"/>
<path d="M809.349 1684.75V1683.05C809.349 1681.92 809.207 1680.92 808.781 1680.07C808.355 1679.22 807.93 1678.37 807.221 1677.66C805.944 1676.24 804.241 1675.53 802.113 1675.53C799.985 1675.53 799.985 1675.67 799.134 1676.1C798.283 1676.53 797.432 1676.95 796.864 1677.66C796.155 1678.37 795.729 1679.08 795.304 1679.93C795.02 1680.78 794.736 1681.77 794.736 1682.77V1699.93C794.736 1701.35 795.02 1702.48 795.446 1703.48C795.871 1704.33 796.439 1705.18 797.148 1705.75C797.857 1706.31 798.709 1706.74 799.56 1707.02C800.411 1707.31 801.262 1707.31 802.113 1707.31C802.965 1707.31 804.1 1707.16 804.951 1706.74C805.802 1706.31 806.511 1705.75 807.221 1705.18C807.93 1704.47 808.355 1703.76 808.781 1702.91C809.207 1702.06 809.349 1701.07 809.349 1700.21V1698.23H804.809V1699.79C804.809 1700.36 804.809 1700.92 804.525 1701.35C804.383 1701.77 804.099 1702.06 803.816 1702.34C803.532 1702.63 803.248 1702.77 802.823 1702.91C802.397 1703.05 802.113 1703.05 801.83 1703.05C800.837 1703.05 800.127 1702.77 799.702 1702.06C799.276 1701.49 799.134 1700.64 799.134 1699.79V1683.76C799.134 1682.77 799.276 1681.77 799.702 1681.21C800.127 1680.5 800.837 1680.21 801.971 1680.21C803.106 1680.21 803.532 1680.5 803.958 1681.21C804.525 1681.92 804.667 1682.62 804.667 1683.48V1685.04H809.207L809.349 1684.75Z" fill="#606060"/>
<path d="M824.812 1702.91H816.158L824.812 1679.36V1675.82H811.902V1680.07H819.989L811.477 1703.05V1707.02H824.812V1702.91Z" fill="#606060"/>
<path d="M840.985 1680.07V1675.82H827.508V1707.02H840.985V1702.63H832.048V1693.41H839.85V1689.15H832.048V1680.07H840.985Z" fill="#606060"/>
<path d="M850.916 1675.53C849.781 1675.53 848.788 1675.67 847.937 1676.1C847.086 1676.53 846.235 1676.95 845.667 1677.66C844.958 1678.37 844.532 1679.08 844.107 1679.93C843.823 1680.78 843.539 1681.77 843.539 1682.77V1699.93C843.539 1701.35 843.823 1702.48 844.248 1703.48C844.674 1704.33 845.241 1705.18 845.951 1705.75C846.66 1706.31 847.511 1706.74 848.363 1707.02C849.214 1707.31 850.065 1707.31 850.916 1707.31C851.767 1707.31 852.902 1707.16 853.753 1706.74C854.605 1706.31 855.314 1705.75 856.023 1705.18C856.733 1704.47 857.158 1703.76 857.584 1702.91C858.009 1702.06 858.151 1701.07 858.151 1700.21V1698.23H853.612V1699.79C853.612 1700.36 853.612 1700.92 853.328 1701.35C853.186 1701.77 852.902 1702.06 852.619 1702.34C852.335 1702.63 852.051 1702.77 851.625 1702.91C851.2 1703.05 850.916 1703.05 850.632 1703.05C849.639 1703.05 848.93 1702.77 848.504 1702.06C848.079 1701.49 847.937 1700.64 847.937 1699.79V1683.76C847.937 1682.77 848.079 1681.77 848.504 1681.21C848.93 1680.5 849.639 1680.21 850.774 1680.21C851.909 1680.21 852.335 1680.5 852.76 1681.21C853.328 1681.92 853.47 1682.62 853.47 1683.48V1685.04H858.009V1683.33C858.009 1682.2 857.868 1681.21 857.442 1680.36C857.016 1679.5 856.591 1678.65 855.881 1677.94C854.605 1676.53 852.902 1675.82 850.774 1675.82L850.916 1675.53Z" fill="#606060"/>
<path d="M866.237 1693.12H871.77V1707.02H876.168V1675.82H871.77V1689.15H866.237V1675.82H861.697V1707.02H866.237V1693.12Z" fill="#606060"/>
<path d="M799.56 1746.46H802.256L806.37 1759.79H811.052L806.228 1745.46C807.647 1744.61 808.64 1743.62 809.207 1742.34C809.775 1741.07 810.059 1739.51 810.059 1737.66C810.059 1731.56 807.363 1728.44 802.114 1728.44H794.879V1759.65H799.419V1746.32L799.56 1746.46ZM799.56 1732.7H801.83C803.391 1732.7 804.384 1733.12 804.951 1733.97C805.235 1734.4 805.377 1734.97 805.519 1735.53C805.519 1736.1 805.519 1736.81 805.519 1737.66C805.519 1738.51 805.519 1739.08 805.519 1739.79C805.519 1740.36 805.235 1740.93 805.093 1741.35C804.81 1741.78 804.526 1742.06 803.958 1742.34C803.533 1742.63 802.823 1742.63 802.114 1742.63H799.56V1732.84V1732.7Z" fill="#606060"/>
<path d="M827.083 1755.25H818.287V1746.17H825.948V1741.92H818.287V1732.7H827.083V1728.44H813.747V1759.79H827.083V1755.25Z" fill="#606060"/>
<path d="M843.255 1744.33C843.823 1743.48 844.106 1742.63 844.248 1741.63C844.39 1740.64 844.532 1739.51 844.532 1738.09C844.532 1736.67 844.39 1734.68 844.106 1733.69C843.823 1732.56 843.255 1731.7 842.546 1730.85C841.837 1730 840.985 1729.44 839.992 1729.15C838.999 1728.87 838.006 1728.73 836.729 1728.73H830.062V1759.93H834.601V1747.73H836.871C838.574 1747.73 839.85 1747.45 840.843 1746.88C841.837 1746.32 842.688 1745.46 843.255 1744.47V1744.33ZM840.276 1740.22C840.276 1740.93 840.134 1741.35 839.85 1741.78C839.567 1742.2 839.283 1742.63 838.715 1742.91C838.148 1743.19 837.581 1743.34 836.587 1743.34H834.459V1732.7H836.729C837.58 1732.7 838.29 1732.7 838.715 1733.12C839.141 1733.41 839.567 1733.83 839.709 1734.26C839.992 1734.83 840.134 1735.39 840.134 1735.96C840.134 1736.67 840.134 1737.38 840.134 1738.09C840.134 1738.8 840.134 1739.65 840.134 1740.22H840.276Z" fill="#606060"/>
<path d="M847.937 1728.44V1752.7C847.937 1753.69 848.079 1754.68 848.504 1755.54C848.93 1756.39 849.356 1757.24 850.065 1757.81C850.774 1758.51 851.484 1758.94 852.335 1759.37C853.186 1759.79 854.179 1759.93 855.172 1759.93C856.165 1759.93 857.158 1759.79 858.01 1759.37C858.861 1758.94 859.712 1758.51 860.279 1757.81C860.989 1757.1 861.414 1756.39 861.84 1755.54C862.266 1754.68 862.407 1753.69 862.407 1752.7V1728.44H857.868V1752.27C857.868 1753.41 857.584 1754.26 857.016 1754.68C856.449 1755.25 855.882 1755.54 855.03 1755.54C854.179 1755.54 853.612 1755.25 853.044 1754.68C852.477 1754.12 852.193 1753.41 852.193 1752.27V1728.44H847.653H847.937Z" fill="#606060"/>
<path d="M879.289 1730.85C878.58 1730.14 877.87 1729.58 876.877 1729.15C875.884 1728.73 874.608 1728.44 873.189 1728.44H866.663V1759.65H872.763C875.743 1759.65 877.871 1758.94 879.147 1757.52C880.424 1756.1 881.133 1753.98 881.133 1751.14V1749.44C881.133 1747.73 880.85 1746.46 880.424 1745.46C879.857 1744.47 879.147 1743.76 878.154 1743.34C879.147 1742.77 879.998 1742.06 880.424 1741.21C880.708 1740.78 880.85 1740.22 880.992 1739.65C880.992 1739.08 881.133 1738.37 881.133 1737.52V1736.39C881.133 1735.39 881.133 1734.4 880.708 1733.41C880.424 1732.41 879.999 1731.56 879.289 1730.85ZM876.877 1752.13C876.877 1752.84 876.594 1753.27 876.452 1753.83C876.168 1754.26 875.743 1754.68 875.317 1754.97C874.749 1755.25 874.04 1755.39 873.189 1755.39H871.203V1745.32H873.189C874.04 1745.32 874.608 1745.32 875.175 1745.61C875.743 1745.75 876.026 1746.03 876.31 1746.46C876.594 1746.88 876.736 1747.31 876.877 1748.02C877.019 1748.73 876.877 1749.29 876.877 1750.15C876.877 1751 876.877 1751.56 876.877 1752.27V1752.13ZM876.168 1740.22C875.601 1740.93 874.608 1741.35 873.189 1741.35H871.203V1732.7H873.047C874.608 1732.7 875.601 1732.98 876.168 1733.69C876.736 1734.4 877.019 1735.39 877.019 1736.81C877.019 1738.23 876.736 1739.36 876.31 1740.07L876.168 1740.22Z" fill="#606060"/>
<path d="M889.788 1728.44H885.39V1759.79H898.725V1755.25H889.788V1728.44Z" fill="#606060"/>
<path d="M906.244 1728.44H901.704V1759.65H906.244V1728.44Z" fill="#606060"/>
<path d="M924.828 1752.84V1750.85H920.289V1752.41C920.289 1752.98 920.289 1753.55 920.005 1753.98C919.863 1754.4 919.579 1754.68 919.296 1754.97C919.012 1755.25 918.728 1755.39 918.302 1755.54C918.019 1755.54 917.593 1755.68 917.309 1755.68C916.316 1755.68 915.607 1755.39 915.181 1754.68C914.756 1754.12 914.614 1753.27 914.614 1752.41V1736.39C914.614 1735.39 914.756 1734.4 915.181 1733.83C915.607 1733.12 916.316 1732.84 917.451 1732.84C918.586 1732.84 919.012 1733.12 919.437 1733.83C920.005 1734.54 920.147 1735.25 920.147 1736.1V1737.66H924.686V1735.96C924.686 1734.83 924.545 1733.83 924.119 1732.98C923.693 1732.13 923.268 1731.28 922.558 1730.57C921.282 1729.15 919.579 1728.44 917.451 1728.44C915.323 1728.44 915.323 1728.58 914.472 1729.01C913.621 1729.44 912.77 1729.86 912.202 1730.57C911.493 1731.28 911.067 1731.99 910.642 1732.84C910.358 1733.69 910.074 1734.68 910.074 1735.68V1752.84C910.074 1754.26 910.358 1755.39 910.784 1756.39C911.209 1757.24 911.777 1758.09 912.486 1758.66C913.195 1759.22 914.047 1759.65 914.898 1759.93C915.749 1760.22 916.6 1760.22 917.451 1760.22C918.303 1760.22 919.437 1760.07 920.289 1759.65C921.14 1759.22 921.849 1758.66 922.558 1758.09C923.268 1757.38 923.693 1756.67 924.119 1755.82C924.545 1754.97 924.686 1753.98 924.686 1753.12L924.828 1752.84Z" fill="#606060"/>
</g>
</svg>
